999
dxfrw 0.6.3
  0
SECTION
  2
HEADER
  9
$ACADVER
  1
AC1021
  9
$DWGCODEPAGE
  3
ANSI_1252
  9
$INSBASE
 10
0
 20
0
 30
0
  9
$EXTMIN
 10
-35
 20
7.333333333332281
 30
0
  9
$EXTMAX
 10
301.94
 20
141.1807499104499
 30
0
  9
$LIMMIN
 10
0
 20
0
  9
$LIMMAX
 10
420
 20
297
  9
$ORTHOMODE
 70
    0
  9
$REGENMODE
 70
    1
  9
$FILLMODE
 70
    1
  9
$QTEXTMODE
 70
    0
  9
$MIRRTEXT
 70
    0
  9
$LTSCALE
 40
1
  9
$ATTMODE
 70
    0
  9
$TEXTSIZE
 40
2.5
  9
$TRACEWID
 40
15.68
  9
$TEXTSTYLE
  7
STANDARD
  9
$CLAYER
  8
Esqueleto
  9
$CELTYPE
  6
BYLAYER
  9
$CECOLOR
 62
  256
  9
$CELTSCALE
 40
1
  9
$DISPSILH
 70
    0
  9
$DIMSCALE
 40
2.5
  9
$DIMASZ
 40
2
  9
$DIMEXO
 40
0.625
  9
$DIMDLI
 40
3.75
  9
$DIMRND
 40
0
  9
$DIMDLE
 40
0
  9
$DIMEXE
 40
1.25
  9
$DIMTP
 40
0
  9
$DIMTM
 40
0
  9
$DIMTXT
 40
1
  9
$DIMCEN
 40
2.5
  9
$DIMTSZ
 40
0
  9
$DIMTOL
 70
    0
  9
$DIMLIM
 70
    0
  9
$DIMTIH
 70
    0
  9
$DIMTOH
 70
    0
  9
$DIMSE1
 70
    0
  9
$DIMSE2
 70
    0
  9
$DIMTAD
 70
    1
  9
$DIMZIN
 70
    1
  9
$DIMBLK
  1

  9
$DIMASO
 70
    1
  9
$DIMSHO
 70
    1
  9
$DIMPOST
  1

  9
$DIMAPOST
  1

  9
$DIMALT
 70
    0
  9
$DIMALTD
 70
    3
  9
$DIMALTF
 40
0.03937
  9
$DIMLFAC
 40
1
  9
$DIMTOFL
 70
    1
  9
$DIMTVP
 40
0
  9
$DIMTIX
 70
    0
  9
$DIMSOXD
 70
    0
  9
$DIMSAH
 70
    0
  9
$DIMBLK1
  1

  9
$DIMBLK2
  1

  9
$DIMSTYLE
  2
STANDARD
  9
$DIMCLRD
 70
    0
  9
$DIMCLRE
 70
    0
  9
$DIMCLRT
 70
    0
  9
$DIMTFAC
 40
1
  9
$DIMGAP
 40
0.625
  9
$DIMJUST
 70
    0
  9
$DIMSD1
 70
    0
  9
$DIMSD2
 70
    0
  9
$DIMTOLJ
 70
    0
  9
$DIMTZIN
 70
    8
  9
$DIMALTZ
 70
    0
  9
$DIMALTTZ
 70
    0
  9
$DIMUPT
 70
    0
  9
$DIMDEC
 70
    4
  9
$DIMTDEC
 70
    2
  9
$DIMALTU
 70
    2
  9
$DIMALTTD
 70
    3
  9
$DIMTXSTY
  7
standard
  9
$DIMAUNIT
 70
    0
  9
$DIMADEC
 70
    2
  9
$DIMALTRND
 40
0
  9
$DIMAZIN
 70
    0
  9
$DIMDSEP
 70
    0
  9
$DIMATFIT
 70
    3
  9
$DIMFRAC
 70
    0
  9
$DIMLDRBLK
  1
STANDARD
  9
$DIMLUNIT
 70
    2
  9
$DIMLWD
 70
   -2
  9
$DIMLWE
 70
   -2
  9
$DIMTMOVE
 70
    0
  9
$DIMFXL
 40
1
  9
$DIMFXLON
 70
    0
  9
$DIMJOGANG
 40
0.7854
  9
$DIMTFILL
 70
    0
  9
$DIMTFILLCLR
 70
    0
  9
$DIMARCSYM
 70
    0
  9
$DIMLTYPE
  6

  9
$DIMLTEX1
  6

  9
$DIMLTEX2
  6

  9
$LUNITS
 70
    2
  9
$LUPREC
 70
    0
  9
$SKETCHINC
 40
1
  9
$FILLETRAD
 40
0
  9
$AUNITS
 70
    0
  9
$AUPREC
 70
    0
  9
$MENU
  1
.
  9
$ELEVATION
 40
0
  9
$PELEVATION
 40
0
  9
$THICKNESS
 40
0
  9
$LIMCHECK
 70
    0
  9
$CHAMFERA
 40
0
  9
$CHAMFERB
 40
0
  9
$CHAMFERC
 40
0
  9
$CHAMFERD
 40
0
  9
$SKPOLY
 70
    0
  9
$USRTIMER
 70
    1
  9
$ANGBASE
 50
0
  9
$ANGDIR
 70
    0
  9
$PDMODE
 70
   34
  9
$PDSIZE
 40
0
  9
$PLINEWID
 40
0
  9
$SPLFRAME
 70
    0
  9
$SPLINETYPE
 70
    2
  9
$SPLINESEGS
 70
    8
  9
$HANDSEED
  5
20000
  9
$SURFTAB1
 70
    6
  9
$SURFTAB2
 70
    6
  9
$SURFTYPE
 70
    6
  9
$SURFU
 70
    6
  9
$SURFV
 70
    6
  9
$UCSBASE
  2

  9
$UCSNAME
  2

  9
$UCSORG
 10
0
 20
0
 30
0
  9
$UCSXDIR
 10
1
 20
0
 30
0
  9
$UCSYDIR
 10
0
 20
1
 30
0
  9
$UCSORTHOREF
  2

  9
$UCSORTHOVIEW
 70
    0
  9
$UCSORGTOP
 10
0
 20
0
 30
0
  9
$UCSORGBOTTOM
 10
0
 20
0
 30
0
  9
$UCSORGLEFT
 10
0
 20
0
 30
0
  9
$UCSORGRIGHT
 10
0
 20
0
 30
0
  9
$UCSORGFRONT
 10
0
 20
0
 30
0
  9
$UCSORGBACK
 10
0
 20
0
 30
0
  9
$PUCSBASE
  2

  9
$PUCSNAME
  2

  9
$PUCSORG
 10
0
 20
0
 30
0
  9
$PUCSXDIR
 10
1
 20
0
 30
0
  9
$PUCSYDIR
 10
0
 20
1
 30
0
  9
$PUCSORTHOREF
  2

  9
$PUCSORTHOVIEW
 70
    0
  9
$PUCSORGTOP
 10
0
 20
0
 30
0
  9
$PUCSORGBOTTOM
 10
0
 20
0
 30
0
  9
$PUCSORGLEFT
 10
0
 20
0
 30
0
  9
$PUCSORGRIGHT
 10
0
 20
0
 30
0
  9
$PUCSORGFRONT
 10
0
 20
0
 30
0
  9
$PUCSORGBACK
 10
0
 20
0
 30
0
  9
$USERI1
 70
    0
  9
$USERI2
 70
    0
  9
$USERI3
 70
    0
  9
$USERI4
 70
    0
  9
$USERI5
 70
    0
  9
$USERR1
 40
0
  9
$USERR2
 40
0
  9
$USERR3
 40
0
  9
$USERR4
 40
0
  9
$USERR5
 40
0
  9
$WORLDVIEW
 70
    1
  9
$SHADEDGE
 70
    3
  9
$SHADEDIF
 70
   70
  9
$TILEMODE
 70
    1
  9
$MAXACTVP
 70
   64
  9
$PINSBASE
 10
3.831803108236484
 20
4.546090336567424
 30
0
  9
$PLIMCHECK
 70
    0
  9
$PEXTMIN
 10
0
 20
0
 30
0
  9
$PEXTMAX
 10
0
 20
0
 30
0
  9
$GRIDMODE
 70
    1
  9
$SNAPSTYLE
 70
    0
  9
$GRIDUNIT
 10
0
 20
0
  9
$PLIMMIN
 10
0
 20
0
  9
$PLIMMAX
 10
29.7
 20
21
  9
$UNITMODE
 70
    0
  9
$VISRETAIN
 70
    1
  9
$PLINEGEN
 70
    0
  9
$PSLTSCALE
 70
    1
  9
$TREEDEPTH
 70
 3020
  9
$CMLSTYLE
  2
Standard
  9
$CMLJUST
 70
    0
  9
$CMLSCALE
 40
20
  9
$PROXYGRAPHICS
 70
    1
  9
$MEASUREMENT
 70
    1
  9
$CELWEIGHT
370
   -1
  9
$ENDCAPS
280
    0
  9
$JOINSTYLE
280
    0
  9
$LWDISPLAY
290
    0
  9
$INSUNITS
 70
    5
  9
$HYPERLINKBASE
  1

  9
$STYLESHEET
  1

  9
$XEDIT
290
    1
  9
$CEPSNTYPE
380
    0
  9
$PSTYLEMODE
290
    1
  9
$EXTNAMES
290
    1
  9
$PSVPSCALE
 40
0.08072653884964683
  9
$OLESTARTUP
290
    0
  9
$SORTENTS
280
  127
  9
$INDEXCTL
280
    0
  9
$HIDETEXT
280
    1
  9
$XCLIPFRAME
290
    0
  9
$HALOGAP
280
    0
  9
$OBSCOLOR
 70
  257
  9
$OBSLTYPE
280
    0
  9
$INTERSECTIONDISPLAY
280
    0
  9
$INTERSECTIONCOLOR
 70
  257
  9
$DIMASSOC
280
    1
  9
$PROJECTNAME
  1

  9
$CAMERADISPLAY
290
    0
  9
$LENSLENGTH
 40
50
  9
$CAMERAHEIGHT
 40
0
  9
$STEPSPERSEC
 40
2
  9
$STEPSIZE
 40
50
  9
$3DDWFPREC
 40
2
  9
$PSOLWIDTH
 40
5
  9
$PSOLHEIGHT
 40
80
  9
$LOFTANG1
 40
1.570796326794897
  9
$LOFTANG2
 40
1.570796326794897
  9
$LOFTMAG1
 40
0
  9
$LOFTMAG2
 40
0
  9
$LOFTPARAM
 70
    7
  9
$LOFTNORMALS
280
    1
  9
$LATITUDE
 40
1
  9
$LONGITUDE
 40
1
  9
$NORTHDIRECTION
 40
0
  9
$TIMEZONE
 70
-8000
  9
$LIGHTGLYPHDISPLAY
280
    1
  9
$TILEMODELIGHTSYNCH
280
    1
  9
$SOLIDHIST
280
    1
  9
$SHOWHIST
280
    1
  9
$DWFFRAME
280
    2
  9
$DGNFRAME
280
    0
  9
$REALWORLDSCALE
290
    1
  9
$INTERFERECOLOR
 62
    1
  9
$CSHADOW
280
    0
  9
$SHADOWPLANELOCATION
 40
0
  0
ENDSEC
  0
SECTION
  2
CLASSES
  0
ENDSEC
  0
SECTION
  2
TABLES
  0
TABLE
  2
VPORT
  5
8
330
0
100
AcDbSymbolTable
 70
    1
  0
VPORT
  5
31
330
2
100
AcDbSymbolTableRecord
100
AcDbViewportTableRecord
  2
*ACTIVE
 70
    0
 10
0
 20
0
 11
1
 21
1
 12
39.94302198103578
 22
-28.20834885666369
 13
0
 23
0
 14
10
 24
10
 15
10
 25
10
 16
0
 26
0
 36
1
 17
0
 27
0
 37
0
 40
23.46934624874419
 41
2.096153846153846
 42
50
 43
0
 44
0
 50
0
 51
0
 71
    0
 72
  100
 73
    1
 74
    3
 75
    0
 76
    1
 77
    0
 78
    0
281
    0
 65
    1
110
0
120
0
130
0
111
1
121
0
131
0
112
0
122
1
132
0
 79
    0
146
0
348
10020
 60
    7
 61
    5
292
1
282
    1
141
0
142
0
 63
  250
421
3358443
  0
ENDTAB
  0
TABLE
  2
LTYPE
  5
5
330
0
100
AcDbSymbolTable
 70
    4
  0
LTYPE
  5
14
330
5
100
AcDbSymbolTableRecord
100
AcDbLinetypeTableRecord
  2
ByBlock
 70
    0
  3

 72
   65
 73
    0
 40
0
  0
LTYPE
  5
15
330
5
100
AcDbSymbolTableRecord
100
AcDbLinetypeTableRecord
  2
ByLayer
 70
    0
  3

 72
   65
 73
    0
 40
0
  0
LTYPE
  5
16
330
5
100
AcDbSymbolTableRecord
100
AcDbLinetypeTableRecord
  2
Continuous
 70
    0
  3
Solid line
 72
   65
 73
    0
 40
0
  0
LTYPE
  5
32
330
5
100
AcDbSymbolTableRecord
100
AcDbLinetypeTableRecord
  2
DOT
 70
    0
  3
Dot . . . . . . . . . . . . . . . . . . . . . .
 72
   65
 73
    2
 40
6.35
 49
0
 74
    0
 49
-6.35
 74
    0
  0
LTYPE
  5
33
330
5
100
AcDbSymbolTableRecord
100
AcDbLinetypeTableRecord
  2
DOTTINY
 70
    0
  3
Dot (.15x) .....................................
 72
   65
 73
    2
 40
0.9525
 49
0
 74
    0
 49
-0.9525
 74
    0
  0
LTYPE
  5
34
330
5
100
AcDbSymbolTableRecord
100
AcDbLinetypeTableRecord
  2
DOT2
 70
    0
  3
Dot (.5x) .....................................
 72
   65
 73
    2
 40
3.175
 49
0
 74
    0
 49
-3.175
 74
    0
  0
LTYPE
  5
35
330
5
100
AcDbSymbolTableRecord
100
AcDbLinetypeTableRecord
  2
DOTX2
 70
    0
  3
Dot (2x) .  .  .  .  .  .  .  .  .  .  .  .  .
 72
   65
 73
    2
 40
12.7
 49
0
 74
    0
 49
-12.7
 74
    0
  0
LTYPE
  5
36
330
5
100
AcDbSymbolTableRecord
100
AcDbLinetypeTableRecord
  2
DASHED
 70
    0
  3
Dashed _ _ _ _ _ _ _ _ _ _ _ _ _ _ _ _ _
 72
   65
 73
    2
 40
19.05
 49
12.7
 74
    0
 49
-6.35
 74
    0
  0
LTYPE
  5
37
330
5
100
AcDbSymbolTableRecord
100
AcDbLinetypeTableRecord
  2
DASHEDTINY
 70
    0
  3
Dashed (.15x) _ _ _ _ _ _ _ _ _ _ _ _ _ _ _ _ _
 72
   65
 73
    2
 40
2.8575
 49
1.905
 74
    0
 49
-0.9525
 74
    0
  0
LTYPE
  5
38
330
5
100
AcDbSymbolTableRecord
100
AcDbLinetypeTableRecord
  2
DASHED2
 70
    0
  3
Dashed (.5x) _ _ _ _ _ _ _ _ _ _ _ _ _ _ _ _ _
 72
   65
 73
    2
 40
9.524999999999999
 49
6.35
 74
    0
 49
-3.175
 74
    0
  0
LTYPE
  5
39
330
5
100
AcDbSymbolTableRecord
100
AcDbLinetypeTableRecord
  2
DASHEDX2
 70
    0
  3
Dashed (2x) ____  ____  ____  ____  ____  ___
 72
   65
 73
    2
 40
38.09999999999999
 49
25.4
 74
    0
 49
-12.7
 74
    0
  0
LTYPE
  5
3A
330
5
100
AcDbSymbolTableRecord
100
AcDbLinetypeTableRecord
  2
DASHDOT
 70
    0
  3
Dash dot __ . __ . __ . __ . __ . __ . __ . __
 72
   65
 73
    4
 40
25.4
 49
12.7
 74
    0
 49
-6.35
 74
    0
 49
0
 74
    0
 49
-6.35
 74
    0
  0
LTYPE
  5
3B
330
5
100
AcDbSymbolTableRecord
100
AcDbLinetypeTableRecord
  2
DASHDOTTINY
 70
    0
  3
Dash dot (.15x) _._._._._._._._._._._._._._._.
 72
   65
 73
    4
 40
3.81
 49
1.905
 74
    0
 49
-0.9525
 74
    0
 49
0
 74
    0
 49
-0.9525
 74
    0
  0
LTYPE
  5
3C
330
5
100
AcDbSymbolTableRecord
100
AcDbLinetypeTableRecord
  2
DASHDOT2
 70
    0
  3
Dash dot (.5x) _._._._._._._._._._._._._._._.
 72
   65
 73
    4
 40
12.7
 49
6.35
 74
    0
 49
-3.175
 74
    0
 49
0
 74
    0
 49
-3.175
 74
    0
  0
LTYPE
  5
3D
330
5
100
AcDbSymbolTableRecord
100
AcDbLinetypeTableRecord
  2
DASHDOTX2
 70
    0
  3
Dash dot (2x) ____  .  ____  .  ____  .  ___
 72
   65
 73
    4
 40
50.8
 49
25.4
 74
    0
 49
-12.7
 74
    0
 49
0
 74
    0
 49
-12.7
 74
    0
  0
LTYPE
  5
3E
330
5
100
AcDbSymbolTableRecord
100
AcDbLinetypeTableRecord
  2
DIVIDE
 70
    0
  3
Divide ____ . . ____ . . ____ . . ____ . . ____
 72
   65
 73
    6
 40
31.75
 49
12.7
 74
    0
 49
-6.35
 74
    0
 49
0
 74
    0
 49
-6.35
 74
    0
 49
0
 74
    0
 49
-6.35
 74
    0
  0
LTYPE
  5
3F
330
5
100
AcDbSymbolTableRecord
100
AcDbLinetypeTableRecord
  2
DIVIDETINY
 70
    0
  3
Divide (.15x) __..__..__..__..__..__..__..__.._
 72
   65
 73
    6
 40
4.7625
 49
1.905
 74
    0
 49
-0.9525
 74
    0
 49
0
 74
    0
 49
-0.9525
 74
    0
 49
0
 74
    0
 49
-0.9525
 74
    0
  0
LTYPE
  5
40
330
5
100
AcDbSymbolTableRecord
100
AcDbLinetypeTableRecord
  2
DIVIDE2
 70
    0
  3
Divide (.5x) __..__..__..__..__..__..__..__.._
 72
   65
 73
    6
 40
15.875
 49
6.35
 74
    0
 49
-3.175
 74
    0
 49
0
 74
    0
 49
-3.175
 74
    0
 49
0
 74
    0
 49
-3.175
 74
    0
  0
LTYPE
  5
41
330
5
100
AcDbSymbolTableRecord
100
AcDbLinetypeTableRecord
  2
DIVIDEX2
 70
    0
  3
Divide (2x) ________  .  .  ________  .  .  _
 72
   65
 73
    6
 40
63.5
 49
25.4
 74
    0
 49
-12.7
 74
    0
 49
0
 74
    0
 49
-12.7
 74
    0
 49
0
 74
    0
 49
-12.7
 74
    0
  0
LTYPE
  5
42
330
5
100
AcDbSymbolTableRecord
100
AcDbLinetypeTableRecord
  2
BORDER
 70
    0
  3
Border __ __ . __ __ . __ __ . __ __ . __ __ .
 72
   65
 73
    6
 40
44.45
 49
12.7
 74
    0
 49
-6.35
 74
    0
 49
12.7
 74
    0
 49
-6.35
 74
    0
 49
0
 74
    0
 49
-6.35
 74
    0
  0
LTYPE
  5
43
330
5
100
AcDbSymbolTableRecord
100
AcDbLinetypeTableRecord
  2
BORDERTINY
 70
    0
  3
Border (.15x) __.__.__.__.__.__.__.__.__.__.__.
 72
   65
 73
    6
 40
6.6675
 49
1.905
 74
    0
 49
-0.9525
 74
    0
 49
1.905
 74
    0
 49
-0.9525
 74
    0
 49
0
 74
    0
 49
-0.9525
 74
    0
  0
LTYPE
  5
44
330
5
100
AcDbSymbolTableRecord
100
AcDbLinetypeTableRecord
  2
BORDER2
 70
    0
  3
Border (.5x) __.__.__.__.__.__.__.__.__.__.__.
 72
   65
 73
    6
 40
22.225
 49
6.35
 74
    0
 49
-3.175
 74
    0
 49
6.35
 74
    0
 49
-3.175
 74
    0
 49
0
 74
    0
 49
-3.175
 74
    0
  0
LTYPE
  5
45
330
5
100
AcDbSymbolTableRecord
100
AcDbLinetypeTableRecord
  2
BORDERX2
 70
    0
  3
Border (2x) ____  ____  .  ____  ____  .  ___
 72
   65
 73
    6
 40
88.89999999999999
 49
25.4
 74
    0
 49
-12.7
 74
    0
 49
25.4
 74
    0
 49
-12.7
 74
    0
 49
0
 74
    0
 49
-12.7
 74
    0
  0
LTYPE
  5
46
330
5
100
AcDbSymbolTableRecord
100
AcDbLinetypeTableRecord
  2
CENTER
 70
    0
  3
Center ____ _ ____ _ ____ _ ____ _ ____ _ ____
 72
   65
 73
    4
 40
50.8
 49
31.75
 74
    0
 49
-6.35
 74
    0
 49
6.35
 74
    0
 49
-6.35
 74
    0
  0
LTYPE
  5
47
330
5
100
AcDbSymbolTableRecord
100
AcDbLinetypeTableRecord
  2
CENTERTINY
 70
    0
  3
Center (.15x) ___ _ ___ _ ___ _ ___ _ ___ _ ___
 72
   65
 73
    4
 40
7.62
 49
4.7625
 74
    0
 49
-0.9525
 74
    0
 49
0.9525
 74
    0
 49
-0.9525
 74
    0
  0
LTYPE
  5
48
330
5
100
AcDbSymbolTableRecord
100
AcDbLinetypeTableRecord
  2
CENTER2
 70
    0
  3
Center (.5x) ___ _ ___ _ ___ _ ___ _ ___ _ ___
 72
   65
 73
    4
 40
28.575
 49
19.05
 74
    0
 49
-3.175
 74
    0
 49
3.175
 74
    0
 49
-3.175
 74
    0
  0
LTYPE
  5
49
330
5
100
AcDbSymbolTableRecord
100
AcDbLinetypeTableRecord
  2
CENTERX2
 70
    0
  3
Center (2x) ________  __  ________  __  _____
 72
   65
 73
    4
 40
101.6
 49
63.5
 74
    0
 49
-12.7
 74
    0
 49
12.7
 74
    0
 49
-12.7
 74
    0
  0
ENDTAB
  0
TABLE
  2
LAYER
  5
2
330
0
100
AcDbSymbolTable
 70
    1
  0
LAYER
  5
10
330
2
100
AcDbSymbolTableRecord
100
AcDbLayerTableRecord
  2
0
 70
    0
 62
    7
  6
CONTINUOUS
370
   -3
390
F
  0
LAYER
  5
4A
330
2
100
AcDbSymbolTableRecord
100
AcDbLayerTableRecord
  2
2D
 70
    0
 62
    7
  6
CONTINUOUS
370
    0
390
F
  0
LAYER
  5
4B
330
2
100
AcDbSymbolTableRecord
100
AcDbLayerTableRecord
  2
3
 70
    0
 62
    7
  6
CONTINUOUS
370
    0
390
F
  0
LAYER
  5
4C
330
2
100
AcDbSymbolTableRecord
100
AcDbLayerTableRecord
  2
Eletrônicos
 70
    0
 62
    5
  6
CONTINUOUS
370
   -3
390
F
  0
LAYER
  5
4D
330
2
100
AcDbSymbolTableRecord
100
AcDbLayerTableRecord
  2
Esqueleto
 70
    0
 62
    7
  6
CONTINUOUS
370
   -3
390
F
  0
LAYER
  5
4E
330
2
100
AcDbSymbolTableRecord
100
AcDbLayerTableRecord
  2
detalhes
 70
    0
 62
    1
  6
CONTINUOUS
370
   -3
390
F
  0
LAYER
  5
4F
330
2
100
AcDbSymbolTableRecord
100
AcDbLayerTableRecord
  2
medidas eletrônica
 70
    0
 62
    5
  6
CONTINUOUS
370
   -3
390
F
  0
LAYER
  5
50
330
2
100
AcDbSymbolTableRecord
100
AcDbLayerTableRecord
  2
medidas estrutura
 70
    0
 62
    7
  6
CONTINUOUS
370
   -3
390
F
  0
ENDTAB
  0
TABLE
  2
STYLE
  5
3
330
0
100
AcDbSymbolTable
 70
    3
  0
STYLE
  5
51
330
2
100
AcDbSymbolTableRecord
100
AcDbTextStyleTableRecord
  2
standard
 70
    0
 40
0
 41
1
 50
0
 71
    0
 42
1
  3
standard
  4

  0
ENDTAB
  0
TABLE
  2
VIEW
  5
6
330
0
100
AcDbSymbolTable
 70
    0
  0
ENDTAB
  0
TABLE
  2
UCS
  5
7
330
0
100
AcDbSymbolTable
 70
    0
  0
ENDTAB
  0
TABLE
  2
APPID
  5
9
330
0
100
AcDbSymbolTable
 70
    1
  0
APPID
  5
12
330
9
100
AcDbSymbolTableRecord
100
AcDbRegAppTableRecord
  2
ACAD
 70
    0
  0
APPID
  5
52
330
9
100
AcDbSymbolTableRecord
100
AcDbRegAppTableRecord
  2
LibreCad
 70
    0
  0
ENDTAB
  0
TABLE
  2
DIMSTYLE
  5
A
330
0
100
AcDbSymbolTable
 70
    1
100
AcDbDimStyleTable
 71
    1
  0
DIMSTYLE
105
53
330
A
100
AcDbSymbolTableRecord
100
AcDbDimStyleTableRecord
  2
Standard
 70
    0
 40
2.5
 41
2
 42
0.625
 43
0.38
 44
1.25
 45
0
 46
0
 47
0
 48
0
 49
1
140
1
141
0.09
142
0
143
25.4
144
1
145
0
146
1
147
0.625
148
0
 71
    0
 72
    0
 73
    0
 74
    1
 75
    0
 76
    0
 77
    0
 78
    1
 79
    0
170
    0
171
    2
172
    0
173
    0
174
    0
175
    0
176
    0
177
    0
178
    0
179
    2
271
    4
272
    4
273
    2
274
    2
275
    0
276
    0
277
    2
278
    0
279
    0
280
    0
281
    0
282
    0
283
    1
284
    0
285
    0
286
    0
288
    0
289
    3
340
standard
341

371
   -2
372
   -2
  0
ENDTAB
  0
TABLE
  2
BLOCK_RECORD
  5
1
330
0
100
AcDbSymbolTable
 70
    2
  0
BLOCK_RECORD
  5
1F
330
1
100
AcDbSymbolTableRecord
100
AcDbBlockTableRecord
  2
*Model_Space
 70
    0
280
    1
281
    0
  0
BLOCK_RECORD
  5
1E
330
1
100
AcDbSymbolTableRecord
100
AcDbBlockTableRecord
  2
*Paper_Space
 70
    0
280
    1
281
    0
  0
BLOCK_RECORD
  5
54
330
1
100
AcDbSymbolTableRecord
100
AcDbBlockTableRecord
  2
*D14
 70
    0
280
    1
281
    0
  0
BLOCK_RECORD
  5
57
330
1
100
AcDbSymbolTableRecord
100
AcDbBlockTableRecord
  2
*D9
 70
    0
280
    1
281
    0
  0
BLOCK_RECORD
  5
5A
330
1
100
AcDbSymbolTableRecord
100
AcDbBlockTableRecord
  2
*D3
 70
    0
280
    1
281
    0
  0
BLOCK_RECORD
  5
5D
330
1
100
AcDbSymbolTableRecord
100
AcDbBlockTableRecord
  2
*D12
 70
    0
280
    1
281
    0
  0
BLOCK_RECORD
  5
60
330
1
100
AcDbSymbolTableRecord
100
AcDbBlockTableRecord
  2
*D8
 70
    0
280
    1
281
    0
  0
BLOCK_RECORD
  5
63
330
1
100
AcDbSymbolTableRecord
100
AcDbBlockTableRecord
  2
*D20
 70
    0
280
    1
281
    0
  0
BLOCK_RECORD
  5
66
330
1
100
AcDbSymbolTableRecord
100
AcDbBlockTableRecord
  2
*D13
 70
    0
280
    1
281
    0
  0
BLOCK_RECORD
  5
69
330
1
100
AcDbSymbolTableRecord
100
AcDbBlockTableRecord
  2
*D16
 70
    0
280
    1
281
    0
  0
BLOCK_RECORD
  5
6C
330
1
100
AcDbSymbolTableRecord
100
AcDbBlockTableRecord
  2
*D10
 70
    0
280
    1
281
    0
  0
BLOCK_RECORD
  5
6F
330
1
100
AcDbSymbolTableRecord
100
AcDbBlockTableRecord
  2
*D19
 70
    0
280
    1
281
    0
  0
BLOCK_RECORD
  5
72
330
1
100
AcDbSymbolTableRecord
100
AcDbBlockTableRecord
  2
*D17
 70
    0
280
    1
281
    0
  0
BLOCK_RECORD
  5
75
330
1
100
AcDbSymbolTableRecord
100
AcDbBlockTableRecord
  2
*D7
 70
    0
280
    1
281
    0
  0
BLOCK_RECORD
  5
78
330
1
100
AcDbSymbolTableRecord
100
AcDbBlockTableRecord
  2
*D4
 70
    0
280
    1
281
    0
  0
BLOCK_RECORD
  5
7B
330
1
100
AcDbSymbolTableRecord
100
AcDbBlockTableRecord
  2
*D15
 70
    0
280
    1
281
    0
  0
BLOCK_RECORD
  5
7E
330
1
100
AcDbSymbolTableRecord
100
AcDbBlockTableRecord
  2
*D18
 70
    0
280
    1
281
    0
  0
BLOCK_RECORD
  5
81
330
1
100
AcDbSymbolTableRecord
100
AcDbBlockTableRecord
  2
*D11
 70
    0
280
    1
281
    0
  0
BLOCK_RECORD
  5
84
330
1
100
AcDbSymbolTableRecord
100
AcDbBlockTableRecord
  2
*D2
 70
    0
280
    1
281
    0
  0
BLOCK_RECORD
  5
87
330
1
100
AcDbSymbolTableRecord
100
AcDbBlockTableRecord
  2
*D1
 70
    0
280
    1
281
    0
  0
BLOCK_RECORD
  5
8A
330
1
100
AcDbSymbolTableRecord
100
AcDbBlockTableRecord
  2
*D5
 70
    0
280
    1
281
    0
  0
BLOCK_RECORD
  5
8D
330
1
100
AcDbSymbolTableRecord
100
AcDbBlockTableRecord
  2
*D6
 70
    0
280
    1
281
    0
  0
BLOCK_RECORD
  5
90
330
1
100
AcDbSymbolTableRecord
100
AcDbBlockTableRecord
  2
23
 70
    0
280
    1
281
    0
  0
ENDTAB
  0
ENDSEC
  0
SECTION
  2
BLOCKS
  0
BLOCK
  5
20
330
1F
100
AcDbEntity
  8
0
100
AcDbBlockBegin
  2
*Model_Space
 70
    0
 10
0
 20
0
 30
0
  3
*Model_Space
  1

  0
ENDBLK
  5
21
330
1F
100
AcDbEntity
  8
0
100
AcDbBlockEnd
  0
BLOCK
  5
1C
330
1B
100
AcDbEntity
  8
0
100
AcDbBlockBegin
  2
*Paper_Space
 70
    0
 10
0
 20
0
 30
0
  3
*Paper_Space
  1

  0
ENDBLK
  5
1D
330
1F
100
AcDbEntity
  8
0
100
AcDbBlockEnd
  0
BLOCK
  5
55
330
54
100
AcDbEntity
  8
0
100
AcDbBlockBegin
  2
*D14
 70
    1
 10
0
 20
0
  3
*D14
  1

  0
LINE
  5
93
100
AcDbEntity
  8
3
  6
ByBlock
 62
    0
370
   -2
100
AcDbLine
 10
53.0625
 20
31
 11
54.625
 21
31
  0
LINE
  5
94
100
AcDbEntity
  8
3
  6
ByBlock
 62
    0
370
   -2
100
AcDbLine
 10
59.2625
 20
31
 11
60.825
 21
31
  0
LINE
  5
95
100
AcDbEntity
  8
3
  6
ByBlock
 62
    0
370
   -2
100
AcDbLine
 10
41.5
 20
31
 11
67.69999999999999
 21
31
  0
SOLID
  5
96
100
AcDbEntity
  8
3
  6
ByBlock
 62
    0
370
   -2
100
AcDbTrace
 10
51.5
 20
31
 30
0
 11
46.5
 21
30.16743068445432
 31
0
 12
46.5
 22
31.83256931554568
 32
0
 13
46.5
 23
31.83256931554568
 33
0
  0
SOLID
  5
97
100
AcDbEntity
  8
3
  6
ByBlock
 62
    0
370
   -2
100
AcDbTrace
 10
57.7
 20
31
 30
0
 11
62.7
 21
31.83256931554568
 31
0
 12
62.7
 22
30.16743068445432
 32
0
 13
62.7
 23
30.16743068445432
 33
0
  0
MTEXT
  5
98
100
AcDbEntity
  8
3
  6
CONTINUOUS
 62
    0
370
   -2
100
AcDbMText
 10
63.2902777777779
 20
33.8125
 30
0
 40
2.5
 41
8.055555555555827
 71
    5
 72
    1
  1
6.2cm
  7
standard
210
0
220
0
230
1
 50
0
 73
    2
 44
1
  0
ENDBLK
  5
56
330
54
100
AcDbEntity
  8
0
100
AcDbBlockEnd
  0
BLOCK
  5
58
330
57
100
AcDbEntity
  8
0
100
AcDbBlockBegin
  2
*D9
 70
    1
 10
0
 20
0
  3
*D9
  1

  0
LINE
  5
99
100
AcDbEntity
  8
medidas estrutura
  6
ByBlock
 62
    0
370
   -2
100
AcDbLine
 10
97.36250000000001
 20
19.1
 11
98.92500000000001
 21
19.1
  0
LINE
  5
9A
100
AcDbEntity
  8
medidas estrutura
  6
ByBlock
 62
    0
370
   -2
100
AcDbLine
 10
100.7625
 20
19.1
 11
102.325
 21
19.1
  0
LINE
  5
9B
100
AcDbEntity
  8
medidas estrutura
  6
ByBlock
 62
    0
370
   -2
100
AcDbLine
 10
85.80000000000001
 20
19.1
 11
109.2
 21
19.1
  0
SOLID
  5
9C
100
AcDbEntity
  8
medidas estrutura
  6
ByBlock
 62
    0
370
   -2
100
AcDbTrace
 10
95.80000000000001
 20
19.1
 30
0
 11
90.80000000000001
 21
18.26743068445432
 31
0
 12
90.80000000000001
 22
19.93256931554568
 32
0
 13
90.80000000000001
 23
19.93256931554568
 33
0
  0
SOLID
  5
9D
100
AcDbEntity
  8
medidas estrutura
  6
ByBlock
 62
    0
370
   -2
100
AcDbTrace
 10
99.19999999999999
 20
19.1
 30
0
 11
104.2
 21
19.93256931554568
 31
0
 12
104.2
 22
18.26743068445432
 32
0
 13
104.2
 23
18.26743068445432
 33
0
  0
MTEXT
  5
9E
100
AcDbEntity
  8
medidas estrutura
  6
CONTINUOUS
 62
    0
370
   -2
100
AcDbMText
 10
104.9291666666668
 20
21.9125
 30
0
 40
2.5
 41
8.333333333333606
 71
    5
 72
    1
  1
3.4cm
  7
standard
210
0
220
0
230
1
 50
0
 73
    2
 44
1
  0
ENDBLK
  5
59
330
57
100
AcDbEntity
  8
0
100
AcDbBlockEnd
  0
BLOCK
  5
5B
330
5A
100
AcDbEntity
  8
0
100
AcDbBlockBegin
  2
*D3
 70
    1
 10
0
 20
0
  3
*D3
  1

  0
LINE
  5
9F
100
AcDbEntity
  8
medidas eletrônica
  6
CONTINUOUS
 62
    7
370
    0
100
AcDbLine
 10
184
 20
126
 11
200.6333919563488
 21
124.9934449915448
  0
SOLID
  5
A0
100
AcDbEntity
  8
medidas eletrônica
  6
CONTINUOUS
 62
    7
370
    0
100
AcDbTrace
 10
184
 20
126
 30
0
 11
189.0411603714802
 21
126.5290309766032
 31
0
 12
188.9405799717107
 22
124.8669328315061
 32
0
 13
188.9405799717107
 23
124.8669328315061
 33
0
  0
ENDBLK
  5
5C
330
5A
100
AcDbEntity
  8
0
100
AcDbBlockEnd
  0
BLOCK
  5
5E
330
5D
100
AcDbEntity
  8
0
100
AcDbBlockBegin
  2
*D12
 70
    1
 10
0
 20
0
  3
*D12
  1

  0
LINE
  5
A1
100
AcDbEntity
  8
medidas estrutura
  6
ByBlock
 62
    0
370
   -2
100
AcDbLine
 10
102.5666666666664
 20
127.4374999999989
 11
102.5666666666652
 21
120.8749999999989
  0
LINE
  5
A2
100
AcDbEntity
  8
medidas estrutura
  6
ByBlock
 62
    0
370
   -2
100
AcDbLine
 10
95.99999999999974
 20
127.4375
 11
95.99999999999864
 21
120.875
  0
LINE
  5
A3
100
AcDbEntity
  8
medidas estrutura
  6
ByBlock
 62
    0
370
   -2
100
AcDbLine
 10
112.5666666666658
 20
123.9999999999972
 11
85.99999999999916
 21
124.0000000000017
  0
SOLID
  5
A4
100
AcDbEntity
  8
medidas estrutura
  6
ByBlock
 62
    0
370
   -2
100
AcDbTrace
 10
102.5666666666658
 20
123.9999999999989
 30
0
 11
107.5666666666659
 21
124.8325693155437
 31
0
 12
107.5666666666656
 22
123.1674306844524
 32
0
 13
107.5666666666656
 23
123.1674306844524
 33
0
  0
SOLID
  5
A5
100
AcDbEntity
  8
medidas estrutura
  6
ByBlock
 62
    0
370
   -2
100
AcDbTrace
 10
95.99999999999916
 20
124
 30
0
 11
90.99999999999902
 21
123.1674306844552
 31
0
 12
90.9999999999993
 22
124.8325693155465
 32
0
 13
90.9999999999993
 23
124.8325693155465
 33
0
  0
MTEXT
  5
A6
100
AcDbEntity
  8
medidas estrutura
  6
CONTINUOUS
 62
    0
370
   -2
100
AcDbMText
 10
108.1569444444443
 20
126.812499999998
 30
0
 40
2.5
 41
8.055555555555982
 71
    5
 72
    1
  1
6.6cm
  7
standard
210
0
220
0
230
1
 50
359.9999999999903
 73
    2
 44
1
  0
ENDBLK
  5
5F
330
5D
100
AcDbEntity
  8
0
100
AcDbBlockEnd
  0
BLOCK
  5
61
330
60
100
AcDbEntity
  8
0
100
AcDbBlockBegin
  2
*D8
 70
    1
 10
0
 20
0
  3
*D8
  1

  0
LINE
  5
A7
100
AcDbEntity
  8
medidas estrutura
  6
ByBlock
 62
    0
370
   -2
100
AcDbLine
 10
97.43752818057206
 20
120.0093842151317
 11
82.40016705343309
 21
120.0996986963758
  0
LINE
  5
A8
100
AcDbEntity
  8
medidas estrutura
  6
ByBlock
 62
    0
370
   -2
100
AcDbLine
 10
97.50419484723872
 20
131.1093842151306
 11
82.46683372009976
 21
131.1996986963747
  0
LINE
  5
A9
100
AcDbEntity
  8
medidas estrutura
  6
ByBlock
 62
    0
370
   -2
100
AcDbLine
 10
85.46505171544604
 20
110.0811106217737
 11
85.65183633579846
 21
141.1807499104499
  0
SOLID
  5
AA
100
AcDbEntity
  8
medidas estrutura
  6
ByBlock
 62
    0
370
   -2
100
AcDbTrace
 10
85.52511069228892
 20
120.0809302661124
 30
0
 11
86.32763550355421
 21
115.0760201178188
 31
0
 12
84.66252690418075
 22
115.0860207700673
 32
0
 13
84.66252690418075
 23
115.0860207700673
 33
0
  0
SOLID
  5
AB
100
AcDbEntity
  8
medidas estrutura
  6
ByBlock
 62
    0
370
   -2
100
AcDbTrace
 10
85.59177735895558
 20
131.1809302661113
 30
0
 11
84.7892525476903
 21
136.1858404144048
 31
0
 12
86.45436114706375
 22
136.1758397621563
 32
0
 13
86.45436114706375
 23
136.1758397621563
 33
0
  0
MTEXT
  5
AC
100
AcDbEntity
  8
medidas estrutura
  6
CONTINUOUS
 62
    0
370
   -2
100
AcDbMText
 10
82.74599475065202
 20
125.6478218533489
 30
0
 40
2.5
 41
8.333333333333449
 71
    5
 72
    1
  1
11.1cm
  7
standard
210
0
220
0
230
1
 50
89.65588534173287
 73
    2
 44
1
  0
ENDBLK
  5
62
330
60
100
AcDbEntity
  8
0
100
AcDbBlockEnd
  0
BLOCK
  5
64
330
63
100
AcDbEntity
  8
0
100
AcDbBlockBegin
  2
*D20
 70
    1
 10
0
 20
0
  3
*D20
  1

  0
LINE
  5
AD
100
AcDbEntity
  8
medidas estrutura
  6
ByBlock
 62
    0
370
   -2
100
AcDbLine
 10
246.5
 20
22
 11
272
 21
22
  0
SOLID
  5
AE
100
AcDbEntity
  8
medidas estrutura
  6
ByBlock
 62
    0
370
   -2
100
AcDbTrace
 10
256.5
 20
22
 30
0
 11
251.5
 21
21.16743068445432
 31
0
 12
251.5
 22
22.83256931554568
 32
0
 13
251.5
 23
22.83256931554568
 33
0
  0
SOLID
  5
AF
100
AcDbEntity
  8
medidas estrutura
  6
ByBlock
 62
    0
370
   -2
100
AcDbTrace
 10
262
 20
22
 30
0
 11
267
 21
22.83256931554568
 31
0
 12
267
 22
21.16743068445432
 32
0
 13
267
 23
21.16743068445432
 33
0
  0
MTEXT
  5
B0
100
AcDbEntity
  8
medidas estrutura
  6
CONTINUOUS
 62
    0
370
   -2
100
AcDbMText
 10
267.590277777778
 20
24.8125
 30
0
 40
2.5
 41
8.055555555555982
 71
    5
 72
    1
  1
5.5cm
  7
standard
210
0
220
0
230
1
 50
0
 73
    2
 44
1
  0
LINE
  5
B1
100
AcDbEntity
  8
medidas estrutura
  6
ByBlock
 62
    0
370
   -2
100
AcDbLine
 10
256.5
 20
30.03186640165819
 11
256.5
 21
18.875
  0
LINE
  5
B2
100
AcDbEntity
  8
medidas estrutura
  6
ByBlock
 62
    0
370
   -2
100
AcDbLine
 10
262
 20
29.99918908435392
 11
262
 21
18.875
  0
ENDBLK
  5
65
330
63
100
AcDbEntity
  8
0
100
AcDbBlockEnd
  0
BLOCK
  5
67
330
66
100
AcDbEntity
  8
0
100
AcDbBlockBegin
  2
*D13
 70
    1
 10
0
 20
0
  3
*D13
  1

  0
LINE
  5
B3
100
AcDbEntity
  8
3
  6
ByBlock
 62
    0
370
   -2
100
AcDbLine
 10
23.0625
 20
31
 11
24.625
 21
31
  0
LINE
  5
B4
100
AcDbEntity
  8
3
  6
ByBlock
 62
    0
370
   -2
100
AcDbLine
 10
29.2625
 20
31
 11
30.825
 21
31
  0
LINE
  5
B5
100
AcDbEntity
  8
3
  6
ByBlock
 62
    0
370
   -2
100
AcDbLine
 10
11.5
 20
31
 11
37.7
 21
31
  0
SOLID
  5
B6
100
AcDbEntity
  8
3
  6
ByBlock
 62
    0
370
   -2
100
AcDbTrace
 10
21.5
 20
31
 30
0
 11
16.5
 21
30.16743068445432
 31
0
 12
16.5
 22
31.83256931554568
 32
0
 13
16.5
 23
31.83256931554568
 33
0
  0
SOLID
  5
B7
100
AcDbEntity
  8
3
  6
ByBlock
 62
    0
370
   -2
100
AcDbTrace
 10
27.7
 20
31
 30
0
 11
32.7
 21
31.83256931554568
 31
0
 12
32.7
 22
30.16743068445432
 32
0
 13
32.7
 23
30.16743068445432
 33
0
  0
MTEXT
  5
B8
100
AcDbEntity
  8
3
  6
CONTINUOUS
 62
    0
370
   -2
100
AcDbMText
 10
33.29027777777792
 20
33.8125
 30
0
 40
2.5
 41
8.055555555555827
 71
    5
 72
    1
  1
6.2cm
  7
standard
210
0
220
0
230
1
 50
0
 73
    2
 44
1
  0
ENDBLK
  5
68
330
66
100
AcDbEntity
  8
0
100
AcDbBlockEnd
  0
BLOCK
  5
6A
330
69
100
AcDbEntity
  8
0
100
AcDbBlockBegin
  2
*D16
 70
    1
 10
0
 20
0
  3
*D16
  1

  0
LINE
  5
B9
100
AcDbEntity
  8
3
  6
ByBlock
 62
    0
370
   -2
100
AcDbLine
 10
18.56137728559852
 20
35.96398336857395
 11
23.14067499561715
 21
35.95698679442634
  0
LINE
  5
BA
100
AcDbEntity
  8
3
  6
ByBlock
 62
    0
370
   -2
100
AcDbLine
 10
18.54569864250581
 20
25.70222198422663
 11
23.12499635252444
 21
25.69522541007901
  0
LINE
  5
BB
100
AcDbEntity
  8
3
  6
ByBlock
 62
    0
370
   -2
100
AcDbLine
 10
20.03095733083986
 20
45.96174971242555
 11
19.98472131225284
 21
15.70001167192178
  0
SOLID
  5
BC
100
AcDbEntity
  8
3
  6
ByBlock
 62
    0
370
   -2
100
AcDbTrace
 10
20.01567864309271
 20
35.96176138434733
 30
0
 11
19.190749643189
 21
40.96302760504645
 31
0
 12
20.85588633074358
 22
40.96048349172643
 32
0
 13
20.85588633074358
 23
40.96048349172643
 33
0
  0
SOLID
  5
BD
100
AcDbEntity
  8
3
  6
ByBlock
 62
    0
370
   -2
100
AcDbTrace
 10
20
 20
25.7
 30
0
 11
20.82492899990371
 21
20.69873377930088
 31
0
 12
19.15979231234913
 22
20.70127789262089
 32
0
 13
19.15979231234913
 23
20.70127789262089
 33
0
  0
MTEXT
  5
BE
100
AcDbEntity
  8
3
  6
CONTINUOUS
 62
    0
370
   -2
100
AcDbMText
 10
17.21426958463721
 20
43.22299448947201
 30
0
 40
2.5
 41
11.38888888888916
 71
    5
 72
    1
  1
10.25cm
  7
standard
210
0
220
0
230
1
 50
89.91245953350017
 73
    2
 44
1
  0
ENDBLK
  5
6B
330
69
100
AcDbEntity
  8
0
100
AcDbBlockEnd
  0
BLOCK
  5
6D
330
6C
100
AcDbEntity
  8
0
100
AcDbBlockBegin
  2
*D10
 70
    1
 10
0
 20
0
  3
*D10
  1

  0
LINE
  5
BF
100
AcDbEntity
  8
medidas estrutura
  6
ByBlock
 62
    0
370
   -2
100
AcDbLine
 10
95.97745274298616
 20
67.09177353441412
 11
95.95417329561953
 21
65.47870152472041
  0
LINE
  5
C0
100
AcDbEntity
  8
medidas estrutura
  6
ByBlock
 62
    0
370
   -2
100
AcDbLine
 10
98.97745274298613
 20
67.04847829298673
 11
98.9541732956195
 21
65.43540628329302
  0
LINE
  5
C1
100
AcDbEntity
  8
medidas estrutura
  6
ByBlock
 62
    0
370
   -2
100
AcDbLine
 10
86.00030902363356
 20
68.74767859023733
 11
108.9982265956608
 21
68.41577845903463
  0
SOLID
  5
C2
100
AcDbEntity
  8
medidas estrutura
  6
ByBlock
 62
    0
370
   -2
100
AcDbTrace
 10
95.99926780964721
 20
68.60337614534967
 30
0
 11
90.98777423786322
 21
67.84304474052941
 31
0
 12
91.01180259541755
 22
69.50800999505758
 32
0
 13
91.01180259541755
 23
69.50800999505758
 33
0
  0
SOLID
  5
C3
100
AcDbEntity
  8
medidas estrutura
  6
ByBlock
 62
    0
370
   -2
100
AcDbTrace
 10
98.99926780964718
 20
68.56008090392228
 30
0
 11
104.0107613814312
 21
69.32041230874255
 31
0
 12
103.9867330238768
 22
67.65544705421438
 32
0
 13
103.9867330238768
 23
67.65544705421438
 33
0
  0
MTEXT
  5
C4
100
AcDbEntity
  8
medidas estrutura
  6
CONTINUOUS
 62
    0
370
   -2
100
AcDbMText
 10
103.2408043066735
 20
71.31166099362959
 30
0
 40
2.5
 41
5.277777777778049
 71
    5
 72
    1
  1
3cm
  7
standard
210
0
220
0
230
1
 50
359.1731791966731
 73
    2
 44
1
  0
ENDBLK
  5
6E
330
6C
100
AcDbEntity
  8
0
100
AcDbBlockEnd
  0
BLOCK
  5
70
330
6F
100
AcDbEntity
  8
0
100
AcDbBlockBegin
  2
*D19
 70
    1
 10
0
 20
0
  3
*D19
  1

  0
LINE
  5
C5
100
AcDbEntity
  8
2D
  6
ByBlock
 62
    0
370
   -2
100
AcDbLine
 10
280
 20
88.95991363377713
 11
298.84
 21
88.95991363377713
  0
SOLID
  5
C6
100
AcDbEntity
  8
2D
  6
ByBlock
 62
    0
370
   -2
100
AcDbTrace
 10
280
 20
88.95991363377713
 30
0
 11
285
 21
89.79248294932282
 31
0
 12
285
 22
88.12734431823145
 32
0
 13
285
 23
88.12734431823145
 33
0
  0
SOLID
  5
C7
100
AcDbEntity
  8
2D
  6
ByBlock
 62
    0
370
   -2
100
AcDbTrace
 10
298.84
 20
88.95991363377713
 30
0
 11
293.84
 21
88.12734431823145
 31
0
 12
293.84
 22
89.79248294932282
 32
0
 13
293.84
 23
89.79248294932282
 33
0
  0
MTEXT
  5
C8
100
AcDbEntity
  8
2D
  6
CONTINUOUS
 62
    0
370
   -2
100
AcDbMText
 10
289.42
 20
91.77241363377713
 30
0
 40
2.5
 41
11.66666666666678
 71
    5
 72
    1
  1
18.84cm
  7
standard
210
0
220
0
230
1
 50
0
 73
    2
 44
1
  0
LINE
  5
C9
100
AcDbEntity
  8
2D
  6
ByBlock
 62
    0
370
   -2
100
AcDbLine
 10
280
 20
87.45769349318566
 11
280
 21
85.83491363377713
  0
LINE
  5
CA
100
AcDbEntity
  8
2D
  6
ByBlock
 62
    0
370
   -2
100
AcDbLine
 10
298.84
 20
90.42214743621422
 11
298.84
 21
92.08491363377713
  0
ENDBLK
  5
71
330
6F
100
AcDbEntity
  8
0
100
AcDbBlockEnd
  0
BLOCK
  5
73
330
72
100
AcDbEntity
  8
0
100
AcDbBlockBegin
  2
*D17
 70
    1
 10
0
 20
0
  3
*D17
  1

  0
LINE
  5
CB
100
AcDbEntity
  8
2D
  6
ByBlock
 62
    0
370
   -2
100
AcDbLine
 10
288.84
 20
114.4000000000001
 11
288.84
 21
19.00000000000007
  0
SOLID
  5
CC
100
AcDbEntity
  8
2D
  6
ByBlock
 62
    0
370
   -2
100
AcDbTrace
 10
288.84
 20
114.4000000000001
 30
0
 11
289.6725693155457
 21
109.4000000000001
 31
0
 12
288.0074306844543
 22
109.4000000000001
 32
0
 13
288.0074306844543
 23
109.4000000000001
 33
0
  0
SOLID
  5
CD
100
AcDbEntity
  8
2D
  6
ByBlock
 62
    0
370
   -2
100
AcDbTrace
 10
288.84
 20
19.00000000000007
 30
0
 11
288.0074306844543
 21
24.00000000000007
 31
0
 12
289.6725693155457
 22
24.00000000000007
 32
0
 13
289.6725693155457
 23
24.00000000000007
 33
0
  0
MTEXT
  5
CE
100
AcDbEntity
  8
2D
  6
CONTINUOUS
 62
    0
370
   -2
100
AcDbMText
 10
286.0275
 20
66.70000000000007
 30
0
 40
2.5
 41
10.2777777777782
 71
    5
 72
    1
  1
95.4cm
  7
standard
210
0
220
0
230
1
 50
90
 73
    2
 44
1
  0
LINE
  5
CF
100
AcDbEntity
  8
2D
  6
ByBlock
 62
    0
370
   -2
100
AcDbLine
 10
287.2775
 20
114.4000000000001
 11
285.715
 21
114.4000000000001
  0
LINE
  5
D0
100
AcDbEntity
  8
2D
  6
ByBlock
 62
    0
370
   -2
100
AcDbLine
 10
287.2775
 20
19.00000000000007
 11
285.715
 21
19.00000000000007
  0
ENDBLK
  5
74
330
72
100
AcDbEntity
  8
0
100
AcDbBlockEnd
  0
BLOCK
  5
76
330
75
100
AcDbEntity
  8
0
100
AcDbBlockBegin
  2
*D7
 70
    1
 10
0
 20
0
  3
*D7
  1

  0
LINE
  5
D1
100
AcDbEntity
  8
medidas estrutura
  6
ByBlock
 62
    0
370
   -2
100
AcDbLine
 10
94.43750343361693
 20
120.0032756741434
 11
76.64090630906567
 21
120.0405851020774
  0
LINE
  5
D2
100
AcDbEntity
  8
medidas estrutura
  6
ByBlock
 62
    0
370
   -2
100
AcDbLine
 10
94.23750343361691
 20
24.60327567414336
 11
76.44090630906565
 21
24.6405851020774
  0
LINE
  5
D3
100
AcDbEntity
  8
medidas estrutura
  6
ByBlock
 62
    0
370
   -2
100
AcDbLine
 10
79.76589944183182
 20
120.0340337537907
 11
79.5658994418318
 21
24.63403375379068
  0
SOLID
  5
D4
100
AcDbEntity
  8
medidas estrutura
  6
ByBlock
 62
    0
370
   -2
100
AcDbTrace
 10
79.76589944183182
 20
120.0340337537907
 30
0
 11
80.58798477053533
 21
115.032299316866
 31
0
 12
78.9228497986108
 22
115.0357901658637
 32
0
 13
78.9228497986108
 23
115.0357901658637
 33
0
  0
SOLID
  5
D5
100
AcDbEntity
  8
medidas estrutura
  6
ByBlock
 62
    0
370
   -2
100
AcDbTrace
 10
79.5658994418318
 20
24.63403375379068
 30
0
 11
78.74381411312829
 21
29.6357681907154
 31
0
 12
80.40894908505283
 22
29.63227734171765
 32
0
 13
80.40894908505283
 23
29.63227734171765
 33
0
  0
MTEXT
  5
D6
100
AcDbEntity
  8
medidas estrutura
  6
CONTINUOUS
 62
    0
370
   -2
100
AcDbMText
 10
76.85340562234227
 20
72.33992996724876
 30
0
 40
2.5
 41
10.2777777777782
 71
    5
 72
    1
  1
95.4cm
  7
standard
210
0
220
0
230
1
 50
89.87988323779005
 73
    2
 44
1
  0
ENDBLK
  5
77
330
75
100
AcDbEntity
  8
0
100
AcDbBlockEnd
  0
BLOCK
  5
79
330
78
100
AcDbEntity
  8
0
100
AcDbBlockBegin
  2
*D4
 70
    1
 10
0
 20
0
  3
*D4
  1

  0
LINE
  5
D7
100
AcDbEntity
  8
medidas estrutura
  6
ByBlock
 62
    0
370
   -2
100
AcDbLine
 10
149.6
 20
127.3625
 11
149.6
 21
129.125
  0
LINE
  5
D8
100
AcDbEntity
  8
medidas estrutura
  6
ByBlock
 62
    0
370
   -2
100
AcDbLine
 10
156.4
 20
127.3625
 11
156.4
 21
129.125
  0
LINE
  5
D9
100
AcDbEntity
  8
medidas estrutura
  6
ByBlock
 62
    0
370
   -2
100
AcDbLine
 10
139.6
 20
126
 11
166.4
 21
126
  0
SOLID
  5
DA
100
AcDbEntity
  8
medidas estrutura
  6
ByBlock
 62
    0
370
   -2
100
AcDbTrace
 10
149.6
 20
126
 30
0
 11
144.6
 21
125.1674306844543
 31
0
 12
144.6
 22
126.8325693155457
 32
0
 13
144.6
 23
126.8325693155457
 33
0
  0
SOLID
  5
DB
100
AcDbEntity
  8
medidas estrutura
  6
ByBlock
 62
    0
370
   -2
100
AcDbTrace
 10
156.4
 20
126
 30
0
 11
161.4
 21
126.8325693155457
 31
0
 12
161.4
 22
125.1674306844543
 32
0
 13
161.4
 23
125.1674306844543
 33
0
  0
MTEXT
  5
DC
100
AcDbEntity
  8
medidas estrutura
  6
CONTINUOUS
 62
    0
370
   -2
100
AcDbMText
 10
161.9902777777779
 20
128.8125
 30
0
 40
2.5
 41
8.055555555555827
 71
    5
 72
    1
  1
5.8cm
  7
standard
210
0
220
0
230
1
 50
0
 73
    2
 44
1
  0
ENDBLK
  5
7A
330
78
100
AcDbEntity
  8
0
100
AcDbBlockEnd
  0
BLOCK
  5
7C
330
7B
100
AcDbEntity
  8
0
100
AcDbBlockBegin
  2
*D15
 70
    1
 10
0
 20
0
  3
*D15
  1

  0
LINE
  5
DD
100
AcDbEntity
  8
3
  6
ByBlock
 62
    0
370
   -2
100
AcDbLine
 10
50.56250000000001
 20
36
 11
52.12500000000001
 21
36
  0
LINE
  5
DE
100
AcDbEntity
  8
3
  6
ByBlock
 62
    0
370
   -2
100
AcDbLine
 10
50.56250000000001
 20
25.7
 11
52.12500000000001
 21
25.7
  0
LINE
  5
DF
100
AcDbEntity
  8
3
  6
ByBlock
 62
    0
370
   -2
100
AcDbLine
 10
49.00000000000001
 20
46
 11
49.00000000000001
 21
15.7
  0
SOLID
  5
E0
100
AcDbEntity
  8
3
  6
ByBlock
 62
    0
370
   -2
100
AcDbTrace
 10
49.00000000000001
 20
36
 30
0
 11
48.16743068445432
 21
41
 31
0
 12
49.83256931554569
 22
41
 32
0
 13
49.83256931554569
 23
41
 33
0
  0
SOLID
  5
E1
100
AcDbEntity
  8
3
  6
ByBlock
 62
    0
370
   -2
100
AcDbTrace
 10
49.00000000000001
 20
25.7
 30
0
 11
49.83256931554569
 21
20.7
 31
0
 12
48.16743068445432
 22
20.7
 32
0
 13
48.16743068445432
 23
20.7
 33
0
  0
MTEXT
  5
E2
100
AcDbEntity
  8
3
  6
CONTINUOUS
 62
    0
370
   -2
100
AcDbMText
 10
46.3
 20
41
 30
0
 40
2.5
 41
9.444444444444716
 71
    5
 72
    1
  1
10.3cm
  7
standard
210
0
220
0
230
1
 50
90
 73
    2
 44
1
  0
ENDBLK
  5
7D
330
7B
100
AcDbEntity
  8
0
100
AcDbBlockEnd
  0
BLOCK
  5
7F
330
7E
100
AcDbEntity
  8
0
100
AcDbBlockBegin
  2
*D18
 70
    1
 10
0
 20
0
  3
*D18
  1

  0
LINE
  5
E3
100
AcDbEntity
  8
medidas estrutura
  6
ByBlock
 62
    0
370
   -2
100
AcDbLine
 10
261.16
 20
22.06587984711663
 11
261.16
 21
43.46587984711663
  0
SOLID
  5
E4
100
AcDbEntity
  8
medidas estrutura
  6
ByBlock
 62
    0
370
   -2
100
AcDbTrace
 10
261.16
 20
22.06587984711663
 30
0
 11
260.3274306844543
 21
27.06587984711663
 31
0
 12
261.9925693155457
 22
27.06587984711663
 32
0
 13
261.9925693155457
 23
27.06587984711663
 33
0
  0
SOLID
  5
E5
100
AcDbEntity
  8
medidas estrutura
  6
ByBlock
 62
    0
370
   -2
100
AcDbTrace
 10
261.16
 20
43.46587984711663
 30
0
 11
261.9925693155457
 21
38.46587984711663
 31
0
 12
260.3274306844543
 22
38.46587984711663
 32
0
 13
260.3274306844543
 23
38.46587984711663
 33
0
  0
MTEXT
  5
E6
100
AcDbEntity
  8
medidas estrutura
  6
CONTINUOUS
 62
    0
370
   -2
100
AcDbMText
 10
258.3475
 20
32.76587984711663
 30
0
 40
2.5
 41
11.38888888888932
 71
    5
 72
    1
  1
21.36cm
  7
standard
210
0
220
0
230
1
 50
90
 73
    2
 44
1
  0
LINE
  5
E7
100
AcDbEntity
  8
medidas estrutura
  6
ByBlock
 62
    0
370
   -2
100
AcDbLine
 10
261.7225
 20
22.06587984711663
 11
264.285
 21
22.06587984711663
  0
LINE
  5
E8
100
AcDbEntity
  8
medidas estrutura
  6
ByBlock
 62
    0
370
   -2
100
AcDbLine
 10
261.7225
 20
43.46587984711663
 11
264.285
 21
43.46587984711663
  0
ENDBLK
  5
80
330
7E
100
AcDbEntity
  8
0
100
AcDbBlockEnd
  0
BLOCK
  5
82
330
81
100
AcDbEntity
  8
0
100
AcDbBlockBegin
  2
*D11
 70
    1
 10
0
 20
0
  3
*D11
  1

  0
LINE
  5
E9
100
AcDbEntity
  8
medidas estrutura
  6
ByBlock
 62
    0
370
   -2
100
AcDbLine
 10
125.726083907547
 20
19.08427891308455
 11
136.6229046197009
 21
18.98030024973163
  0
LINE
  5
EA
100
AcDbEntity
  8
medidas estrutura
  6
ByBlock
 62
    0
370
   -2
100
AcDbLine
 10
126.7957622039204
 20
131.1850911316382
 11
137.6925829160743
 21
131.0811124682853
  0
LINE
  5
EB
100
AcDbEntity
  8
medidas estrutura
  6
ByBlock
 62
    0
370
   -2
100
AcDbLine
 10
133.4980468785266
 20
19.01011798645304
 11
134.5677251749
 21
131.1109302050067
  0
SOLID
  5
EC
100
AcDbEntity
  8
medidas estrutura
  6
ByBlock
 62
    0
370
   -2
100
AcDbTrace
 10
133.4980468785266
 20
19.01011798645304
 30
0
 11
132.7132238426418
 21
24.01783447878093
 31
0
 12
134.3782866719199
 22
24.00194626588284
 32
0
 13
134.3782866719199
 23
24.00194626588284
 33
0
  0
SOLID
  5
ED
100
AcDbEntity
  8
medidas estrutura
  6
ByBlock
 62
    0
370
   -2
100
AcDbTrace
 10
134.5677251749
 20
131.1109302050067
 30
0
 11
135.3525482107848
 21
126.1032137126788
 31
0
 12
133.6874853815067
 22
126.1191019255769
 32
0
 13
133.6874853815067
 23
126.1191019255769
 33
0
  0
MTEXT
  5
EE
100
AcDbEntity
  8
medidas estrutura
  6
CONTINUOUS
 62
    0
370
   -2
100
AcDbMText
 10
131.2205140596565
 20
75.08736005877911
 30
0
 40
2.5
 41
10.27777777777789
 71
    5
 72
    1
  1
112.1cm
  7
standard
210
0
220
0
230
1
 50
89.45329395410107
 73
    2
 44
1
  0
ENDBLK
  5
83
330
81
100
AcDbEntity
  8
0
100
AcDbBlockEnd
  0
BLOCK
  5
85
330
84
100
AcDbEntity
  8
0
100
AcDbBlockBegin
  2
*D2
 70
    1
 10
0
 20
0
  3
*D2
  1

  0
LINE
  5
EF
100
AcDbEntity
  8
medidas eletrônica
  6
CONTINUOUS
 62
    7
370
    0
100
AcDbLine
 10
181.9
 20
112.5
 11
205.4867473214545
 21
90.73539135378874
  0
SOLID
  5
F0
100
AcDbEntity
  8
medidas eletrônica
  6
CONTINUOUS
 62
    7
370
    0
100
AcDbTrace
 10
181.9
 20
112.5
 30
0
 11
186.1392270642618
 21
109.7211287250363
 31
0
 12
185.0100144431645
 22
108.4973781307127
 32
0
 13
185.0100144431645
 23
108.4973781307127
 33
0
  0
ENDBLK
  5
86
330
84
100
AcDbEntity
  8
0
100
AcDbBlockEnd
  0
BLOCK
  5
88
330
87
100
AcDbEntity
  8
0
100
AcDbBlockBegin
  2
*D1
 70
    1
 10
0
 20
0
  3
*D1
  1

  0
LINE
  5
F1
100
AcDbEntity
  8
medidas eletrônica
  6
CONTINUOUS
 62
    7
370
    0
100
AcDbLine
 10
182.2
 20
24.6
 11
200
 21
30
  0
SOLID
  5
F2
100
AcDbEntity
  8
medidas eletrônica
  6
CONTINUOUS
 62
    7
370
    0
100
AcDbTrace
 10
182.2
 20
24.6
 30
0
 11
186.7429699421144
 21
26.84824281834355
 31
0
 12
187.22636934204
 22
25.25481516673699
 32
0
 13
187.22636934204
 23
25.25481516673699
 33
0
  0
ENDBLK
  5
89
330
87
100
AcDbEntity
  8
0
100
AcDbBlockEnd
  0
BLOCK
  5
8B
330
8A
100
AcDbEntity
  8
0
100
AcDbBlockBegin
  2
*D5
 70
    1
 10
0
 20
0
  3
*D5
  1

  0
LINE
  5
F3
100
AcDbEntity
  8
medidas estrutura
  6
ByBlock
 62
    0
370
   -2
100
AcDbLine
 10
153.5625
 20
131
 11
155.125
 21
131
  0
LINE
  5
F4
100
AcDbEntity
  8
medidas estrutura
  6
ByBlock
 62
    0
370
   -2
100
AcDbLine
 10
155.5625
 20
131
 11
157.125
 21
131
  0
LINE
  5
F5
100
AcDbEntity
  8
medidas estrutura
  6
ByBlock
 62
    0
370
   -2
100
AcDbLine
 10
142
 20
131
 11
164
 21
131
  0
SOLID
  5
F6
100
AcDbEntity
  8
medidas estrutura
  6
ByBlock
 62
    0
370
   -2
100
AcDbTrace
 10
152
 20
131
 30
0
 11
147
 21
130.1674306844543
 31
0
 12
147
 22
131.8325693155457
 32
0
 13
147
 23
131.8325693155457
 33
0
  0
SOLID
  5
F7
100
AcDbEntity
  8
medidas estrutura
  6
ByBlock
 62
    0
370
   -2
100
AcDbTrace
 10
154
 20
131
 30
0
 11
159
 21
131.8325693155457
 31
0
 12
159
 22
130.1674306844543
 32
0
 13
159
 23
130.1674306844543
 33
0
  0
MTEXT
  5
F8
100
AcDbEntity
  8
medidas estrutura
  6
CONTINUOUS
 62
    0
370
   -2
100
AcDbMText
 10
158.2013888888889
 20
133.8125
 30
0
 40
2.5
 41
5.277777777777894
 71
    5
 72
    1
  1
2cm
  7
standard
210
0
220
0
230
1
 50
0
 73
    2
 44
1
  0
ENDBLK
  5
8C
330
8A
100
AcDbEntity
  8
0
100
AcDbBlockEnd
  0
BLOCK
  5
8E
330
8D
100
AcDbEntity
  8
0
100
AcDbBlockBegin
  2
*D6
 70
    1
 10
0
 20
0
  3
*D6
  1

  0
LINE
  5
F9
100
AcDbEntity
  8
medidas estrutura
  6
ByBlock
 62
    0
370
   -2
100
AcDbLine
 10
94.23749999999998
 20
19.1
 11
76.44166666666662
 21
19.1
  0
LINE
  5
FA
100
AcDbEntity
  8
medidas estrutura
  6
ByBlock
 62
    0
370
   -2
100
AcDbLine
 10
94.23749999999998
 20
24.6
 11
76.44166666666662
 21
24.6
  0
LINE
  5
FB
100
AcDbEntity
  8
medidas estrutura
  6
ByBlock
 62
    0
370
   -2
100
AcDbLine
 10
79.56666666666662
 20
9.100000000000005
 11
79.56666666666662
 21
34.60000000000001
  0
SOLID
  5
FC
100
AcDbEntity
  8
medidas estrutura
  6
ByBlock
 62
    0
370
   -2
100
AcDbTrace
 10
79.56666666666662
 20
19.1
 30
0
 11
80.3992359822123
 21
14.1
 31
0
 12
78.73409735112094
 22
14.1
 32
0
 13
78.73409735112094
 23
14.1
 33
0
  0
SOLID
  5
FD
100
AcDbEntity
  8
medidas estrutura
  6
ByBlock
 62
    0
370
   -2
100
AcDbTrace
 10
79.56666666666662
 20
24.6
 30
0
 11
78.73409735112094
 21
29.6
 31
0
 12
80.3992359822123
 22
29.6
 32
0
 13
80.3992359822123
 23
29.6
 33
0
  0
MTEXT
  5
FE
100
AcDbEntity
  8
medidas estrutura
  6
CONTINUOUS
 62
    0
370
   -2
100
AcDbMText
 10
76.75416666666662
 20
30.190277777778
 30
0
 40
2.5
 41
8.055555555555982
 71
    5
 72
    1
  1
5.5cm
  7
standard
210
0
220
0
230
1
 50
90
 73
    2
 44
1
  0
ENDBLK
  5
8F
330
8D
100
AcDbEntity
  8
0
100
AcDbBlockEnd
  0
BLOCK
  5
91
330
90
100
AcDbEntity
  8
0
100
AcDbBlockBegin
  2
23
 70
    0
 10
0
 20
0
  3
23
  1

  0
LINE
  5
FF
100
AcDbEntity
  8
2D
  6
ByLayer
 62
  256
370
   -1
100
AcDbLine
 10
-32.93312498398637
 20
-3.552713678800501e-015
 11
-32.93312498398637
 21
18.84
  0
LINE
  5
100
100
AcDbEntity
  8
2D
  6
ByLayer
 62
  256
370
   -1
100
AcDbLine
 10
-32.93312498398637
 20
18.84
 11
62.4668750160136
 21
18.84
  0
LINE
  5
101
100
AcDbEntity
  8
2D
  6
ByLayer
 62
  256
370
   -1
100
AcDbLine
 10
62.46687501601366
 20
18.83999999999999
 11
62.46687501601366
 21
-7.105427357601002e-015
  0
ENDBLK
  5
92
330
90
100
AcDbEntity
  8
0
100
AcDbBlockEnd
  0
ENDSEC
  0
SECTION
  2
ENTITIES
  0
HATCH
  5
102
100
AcDbEntity
  8
0
  6
ByLayer
 62
  256
370
   -1
100
AcDbHatch
 10
0
 20
0
 30
0
210
0
220
0
230
1
  2
SOLID
 70
    1
 71
    0
 91
    1
 92
    0
 93
    4
 72
    1
 10
-31.99999999999999
 20
127
 11
-31.99999999999999
 21
123
 72
    1
 10
-31.99999999999999
 20
123
 11
-27.99999999999999
 21
123
 72
    1
 10
-27.99999999999999
 20
123
 11
-27.99999999999999
 21
127
 72
    1
 10
-27.99999999999999
 20
127
 11
-31.99999999999999
 21
127
 97
    0
 75
    0
 76
    1
 98
    0
  0
HATCH
  5
103
100
AcDbEntity
  8
0
  6
ByLayer
 62
    5
370
   -1
100
AcDbHatch
 10
0
 20
0
 30
0
210
0
220
0
230
1
  2
SOLID
 70
    1
 71
    0
 91
    1
 92
    0
 93
    4
 72
    1
 10
-31.99999999999999
 20
107
 11
-31.99999999999999
 21
103
 72
    1
 10
-31.99999999999999
 20
103
 11
-27.99999999999999
 21
103
 72
    1
 10
-27.99999999999999
 20
103
 11
-27.99999999999999
 21
107
 72
    1
 10
-27.99999999999999
 20
107
 11
-31.99999999999999
 21
107
 97
    0
 75
    0
 76
    1
 98
    0
  0
HATCH
  5
104
100
AcDbEntity
  8
0
  6
ByLayer
 62
    1
370
   -1
100
AcDbHatch
 10
0
 20
0
 30
0
210
0
220
0
230
1
  2
SOLID
 70
    1
 71
    0
 91
    1
 92
    0
 93
    4
 72
    1
 10
-31.99999999999999
 20
117
 11
-31.99999999999999
 21
113
 72
    1
 10
-31.99999999999999
 20
113
 11
-27.99999999999999
 21
113
 72
    1
 10
-27.99999999999999
 20
113
 11
-27.99999999999999
 21
117
 72
    1
 10
-27.99999999999999
 20
117
 11
-31.99999999999999
 21
117
 97
    0
 75
    0
 76
    1
 98
    0
  0
HATCH
  5
105
100
AcDbEntity
  8
medidas estrutura
  6
ByLayer
 62
  256
370
   -1
100
AcDbHatch
 10
0
 20
0
 30
0
210
0
220
0
230
1
  2
SOLID
 70
    1
 71
    0
 91
    1
 92
    0
 93
    3
 72
    1
 10
124.33724427099
 20
119.9979507514832
 11
122.2511630147234
 21
123.0390467697392
 72
    1
 10
122.2511630147234
 20
123.0390467697392
 11
120.6527187026253
 21
120.1537433574235
 72
    1
 10
120.6527187026253
 20
120.1537433574235
 11
124.33724427099
 21
119.9979507514832
 97
    0
 75
    0
 76
    1
 98
    0
  0
HATCH
  5
106
100
AcDbEntity
  8
medidas estrutura
  6
ByLayer
 62
  256
370
   -1
100
AcDbHatch
 10
0
 20
0
 30
0
210
0
220
0
230
1
  2
SOLID
 70
    1
 71
    0
 91
    1
 92
    0
 93
    3
 72
    1
 10
130.0372442709901
 20
119.8979507514833
 11
127.9511630147234
 21
122.9390467697393
 72
    1
 10
127.9511630147234
 20
122.9390467697393
 11
126.3527187026253
 21
120.0537433574235
 72
    1
 10
126.3527187026253
 20
120.0537433574235
 11
130.0372442709901
 21
119.8979507514833
 97
    0
 75
    0
 76
    1
 98
    0
  0
HATCH
  5
107
100
AcDbEntity
  8
medidas estrutura
  6
ByLayer
 62
  256
370
   -1
100
AcDbHatch
 10
0
 20
0
 30
0
210
0
220
0
230
1
  2
SOLID
 70
    1
 71
    0
 91
    1
 92
    0
 93
    3
 72
    1
 10
120.3419212216657
 20
129.0616458118674
 11
117.5382095693354
 21
126.6659828617455
 72
    1
 10
117.5382095693354
 20
126.6659828617455
 11
120.5762245903651
 21
125.3812787199302
 72
    1
 10
120.5762245903651
 20
125.3812787199302
 11
120.3419212216657
 21
129.0616458118674
 97
    0
 75
    0
 76
    1
 98
    0
  0
HATCH
  5
108
100
AcDbEntity
  8
medidas estrutura
  6
ByLayer
 62
  256
370
   -1
100
AcDbHatch
 10
0
 20
0
 30
0
210
0
220
0
230
1
  2
SOLID
 70
    1
 71
    0
 91
    1
 92
    0
 93
    3
 72
    1
 10
125.6367856508489
 20
129.3045410346759
 11
125.0074600671798
 21
132.9382649248111
 72
    1
 10
125.0074600671798
 20
132.9382649248111
 11
122.3522111885393
 21
130.9813149018215
 72
    1
 10
122.3522111885393
 20
130.9813149018215
 11
125.6367856508489
 21
129.3045410346759
 97
    0
 75
    0
 76
    1
 98
    0
  0
HATCH
  5
109
100
AcDbEntity
  8
medidas estrutura
  6
ByLayer
 62
  256
370
   -1
100
AcDbHatch
 10
0
 20
0
 30
0
210
0
220
0
230
1
  2
SOLID
 70
    1
 71
    0
 91
    1
 92
    0
 93
    3
 72
    1
 10
179.9994935171397
 20
119.998623201408
 11
177.9134122608731
 21
123.0397192196641
 72
    1
 10
177.9134122608731
 20
123.0397192196641
 11
176.3149679487749
 21
120.1544158073483
 72
    1
 10
176.3149679487749
 20
120.1544158073483
 11
179.9994935171397
 21
119.998623201408
 97
    0
 75
    0
 76
    1
 98
    0
  0
HATCH
  5
10A
100
AcDbEntity
  8
medidas estrutura
  6
ByLayer
 62
  256
370
   -1
100
AcDbHatch
 10
0
 20
0
 30
0
210
0
220
0
230
1
  2
SOLID
 70
    1
 71
    0
 91
    1
 92
    0
 93
    3
 72
    1
 10
180.0056543129262
 20
131.0007617679125
 11
176.3812886269037
 21
131.6819176780994
 72
    1
 10
176.3812886269037
 20
131.6819176780994
 11
177.2861101731633
 21
128.5099627652066
 72
    1
 10
177.2861101731633
 20
128.5099627652066
 11
180.0056543129262
 21
131.0007617679125
 97
    0
 75
    0
 76
    1
 98
    0
  0
LINE
  5
10B
100
AcDbEntity
  8
Eletrônicos
  6
ByLayer
 62
  256
370
   -1
100
AcDbLine
 10
181.9
 20
112.5
 11
181.9
 21
119
  0
LINE
  5
10C
100
AcDbEntity
  8
Eletrônicos
  6
ByLayer
 62
  256
370
   -1
100
AcDbLine
 10
181.9
 20
119
 11
180.1
 21
119
  0
LINE
  5
10D
100
AcDbEntity
  8
Eletrônicos
  6
ByLayer
 62
  256
370
   -1
100
AcDbLine
 10
180.1
 20
119
 11
180.1
 21
112.5
  0
LINE
  5
10E
100
AcDbEntity
  8
Eletrônicos
  6
ByLayer
 62
  256
370
   -1
100
AcDbLine
 10
180.1
 20
112.5
 11
181.9
 21
112.5
  0
LINE
  5
10F
100
AcDbEntity
  8
Eletrônicos
  6
ByLayer
 62
  256
370
   -1
100
AcDbLine
 10
181.9
 20
105.5
 11
181.9
 21
112
  0
LINE
  5
110
100
AcDbEntity
  8
Eletrônicos
  6
ByLayer
 62
  256
370
   -1
100
AcDbLine
 10
181.9
 20
112
 11
180.1
 21
112
  0
LINE
  5
111
100
AcDbEntity
  8
Eletrônicos
  6
ByLayer
 62
  256
370
   -1
100
AcDbLine
 10
180.1
 20
112
 11
180.1
 21
105.5
  0
LINE
  5
112
100
AcDbEntity
  8
Eletrônicos
  6
ByLayer
 62
  256
370
   -1
100
AcDbLine
 10
180.1
 20
105.5
 11
181.9
 21
105.5
  0
MTEXT
  5
113
100
AcDbEntity
  8
0
  6
ByLayer
 62
  256
370
   -1
100
AcDbMText
 10
176.5555555555555
 20
10
 30
0
 40
2
 41
8.222222222222316
 71
    1
 72
    1
  1
Frente
  7
standard
210
0
220
0
230
1
 50
0
 73
    2
 44
1
  0
LINE
  5
114
100
AcDbEntity
  8
Eletrônicos
  6
ByLayer
 62
  256
370
   -1
100
AcDbLine
 10
180.3
 20
130.9
 11
180.4
 21
131.1
  0
LINE
  5
115
100
AcDbEntity
  8
Eletrônicos
  6
ByLayer
 62
  256
370
   -1
100
AcDbLine
 10
181.5
 20
130.9
 11
180.3
 21
130.9
  0
LINE
  5
116
100
AcDbEntity
  8
Eletrônicos
  6
ByLayer
 62
  256
370
   -1
100
AcDbLine
 10
181.6
 20
131.1
 11
181.5
 21
130.9
  0
LINE
  5
117
100
AcDbEntity
  8
Eletrônicos
  6
ByLayer
 62
  256
370
   -1
100
AcDbLine
 10
180.4
 20
131.1
 11
181.6
 21
131.1
  0
LEADER
  5
118
100
AcDbEntity
  8
medidas eletrônica
  6
DASHED
 62
  256
370
   -1
100
AcDbLeader
  3
Standard
 71
    1
 72
    0
 73
    3
 74
    0
 75
    0
 40
1
 41
10
 76
2
 76
2
 10
182.2
 20
24.6
 30
0
 10
200
 20
30
 30
0
  0
CIRCLE
  5
119
100
AcDbEntity
  8
medidas eletrônica
  6
DASHED
 62
  256
370
   -1
100
AcDbCircle
 10
220
 20
30
 40
20
  0
LEADER
  5
11A
100
AcDbEntity
  8
medidas eletrônica
  6
DASHED
 62
  256
370
   -1
100
AcDbLeader
  3
Standard
 71
    1
 72
    0
 73
    3
 74
    0
 75
    0
 40
1
 41
10
 76
2
 76
2
 10
181.9
 20
112.5
 30
0
 10
205.4867473214545
 20
90.73539135378874
 30
0
  0
LEADER
  5
11B
100
AcDbEntity
  8
medidas eletrônica
  6
DASHED
 62
  256
370
   -1
100
AcDbLeader
  3
Standard
 71
    1
 72
    0
 73
    3
 74
    0
 75
    0
 40
1
 41
10
 76
2
 76
2
 10
184
 20
126
 30
0
 10
200.6333919563488
 20
124.9934449915448
 30
0
  0
LINE
  5
11C
100
AcDbEntity
  8
medidas estrutura
  6
ByLayer
 62
  256
370
   -1
100
AcDbLine
 10
180.0056543129262
 20
131.0007617679125
 11
176.3812886269037
 21
131.6819176780994
  0
LINE
  5
11D
100
AcDbEntity
  8
medidas estrutura
  6
ByLayer
 62
  256
370
   -1
100
AcDbLine
 10
177.2861101731633
 20
128.5099627652066
 11
180.0056543129262
 21
131.0007617679125
  0
LINE
  5
11E
100
AcDbEntity
  8
medidas estrutura
  6
ByLayer
 62
  256
370
   -1
100
AcDbLine
 10
176.3962263555118
 20
131.6416757592875
 11
177.2861101731633
 21
128.5099627652066
  0
LINE
  5
11F
100
AcDbEntity
  8
medidas estrutura
  6
ByLayer
 62
  256
370
   -1
100
AcDbLine
 10
179.9994935171397
 20
119.998623201408
 11
177.9134122608731
 21
123.0397192196641
  0
LINE
  5
120
100
AcDbEntity
  8
medidas estrutura
  6
ByLayer
 62
  256
370
   -1
100
AcDbLine
 10
176.3149679487749
 20
120.1544158073483
 11
179.9994935171397
 21
119.998623201408
  0
LINE
  5
121
100
AcDbEntity
  8
medidas estrutura
  6
ByLayer
 62
  256
370
   -1
100
AcDbLine
 10
177.895582579483
 20
123.0006724499237
 11
176.3149679487749
 21
120.1544158073483
  0
LWPOLYLINE
  5
122
100
AcDbEntity
  8
medidas estrutura
  6
ByLayer
 62
  256
370
   -1
100
AcDbPolyline
 90
    2
 70
    0
 43
0
 10
177
 20
130
 42
0.5773502691896192
 10
177.1
 20
121.6
 42
0.5773502691896192
  0
MTEXT
  5
123
100
AcDbEntity
  8
0
  6
ByLayer
 62
  256
370
   -1
100
AcDbMText
 10
149.8888888888889
 20
10
 30
0
 40
2
 41
5.555556584130045
 71
    1
 72
    1
  1
Trás
  7
standard
210
0
220
0
230
1
 50
0
 73
    2
 44
1
  0
LINE
  5
124
100
AcDbEntity
  8
Esqueleto
  6
ByLayer
 62
  256
370
   -1
100
AcDbLine
 10
179.5
 20
26
 11
179.5
 21
105
  0
LINE
  5
125
100
AcDbEntity
  8
Esqueleto
  6
ByLayer
 62
  256
370
   -1
100
AcDbLine
 10
182.5
 20
105
 11
182.5
 21
26
  0
LINE
  5
126
100
AcDbEntity
  8
Esqueleto
  6
ByLayer
 62
  256
370
   -1
100
AcDbLine
 10
179.5
 20
105
 11
179.5
 21
120
  0
LINE
  5
127
100
AcDbEntity
  8
Esqueleto
  6
ByLayer
 62
  256
370
   -1
100
AcDbLine
 10
182.5
 20
120
 11
182.5
 21
105
  0
LWPOLYLINE
  5
128
100
AcDbEntity
  8
Esqueleto
  6
ByLayer
 62
  256
370
   -1
100
AcDbPolyline
 90
    3
 70
    0
 43
0
 10
180
 20
131
 42
0.1539147210598289
 10
177.6
 20
126
 42
0.1539147210598291
 10
179.5
 20
120
 42
0.1539147210598291
  0
LWPOLYLINE
  5
129
100
AcDbEntity
  8
Esqueleto
  6
ByLayer
 62
  256
370
   -1
100
AcDbPolyline
 90
    3
 70
    0
 43
0
 10
182.5
 20
120
 42
0.1539147210598291
 10
184.4
 20
126
 42
0.1539147210598289
 10
182
 20
131
 42
0.1539147210598289
  0
LWPOLYLINE
  5
12A
100
AcDbEntity
  8
Esqueleto
  6
ByLayer
 62
  256
370
   -1
100
AcDbPolyline
 90
    2
 70
    0
 43
0
 10
180
 20
131
 42
-0.1539147210598289
 10
182
 20
131
 42
-0.1539147210598289
  0
LWPOLYLINE
  5
12B
100
AcDbEntity
  8
Esqueleto
  6
ByLayer
 62
  256
370
   -1
100
AcDbPolyline
 90
    3
 70
    0
 43
0
 10
152
 20
131
 42
0.1539147210598289
 10
149.6
 20
126
 42
0.1539147210598291
 10
151.5
 20
120
 42
0.1539147210598291
  0
LWPOLYLINE
  5
12C
100
AcDbEntity
  8
Esqueleto
  6
ByLayer
 62
  256
370
   -1
100
AcDbPolyline
 90
    3
 70
    0
 43
0
 10
154.5
 20
120
 42
0.1539147210598291
 10
156.4
 20
126
 42
0.1539147210598289
 10
154
 20
131
 42
0.1539147210598289
  0
LWPOLYLINE
  5
12D
100
AcDbEntity
  8
Esqueleto
  6
ByLayer
 62
  256
370
   -1
100
AcDbPolyline
 90
    2
 70
    0
 43
0
 10
152
 20
131
 42
-0.1539147210598289
 10
154
 20
131
 42
-0.1539147210598289
  0
LINE
  5
12E
100
AcDbEntity
  8
Esqueleto
  6
ByLayer
 62
  256
370
   -1
100
AcDbLine
 10
152
 20
24.6
 11
151.8
 21
24.6
  0
LINE
  5
12F
100
AcDbEntity
  8
Esqueleto
  6
ByLayer
 62
  256
370
   -1
100
AcDbLine
 10
154
 20
24.6
 11
154.2
 21
24.6
  0
LINE
  5
130
100
AcDbEntity
  8
Esqueleto
  6
ByLayer
 62
  256
370
   -1
100
AcDbLine
 10
152
 20
24.6
 11
154
 21
24.6
  0
LINE
  5
131
100
AcDbEntity
  8
Esqueleto
  6
ByLayer
 62
  256
370
   -1
100
AcDbLine
 10
151.3
 20
19.1
 11
154.7
 21
19.1
  0
LINE
  5
132
100
AcDbEntity
  8
Esqueleto
  6
ByLayer
 62
  256
370
   -1
100
AcDbLine
 10
154.7
 20
19.1
 11
154.7
 21
24.6
  0
LINE
  5
133
100
AcDbEntity
  8
Esqueleto
  6
ByLayer
 62
  256
370
   -1
100
AcDbLine
 10
154.7
 20
24.6
 11
151.3
 21
24.6
  0
LINE
  5
134
100
AcDbEntity
  8
Esqueleto
  6
ByLayer
 62
  256
370
   -1
100
AcDbLine
 10
151.3
 20
24.6
 11
151.3
 21
19.1
  0
LINE
  5
135
100
AcDbEntity
  8
Esqueleto
  6
ByLayer
 62
  256
370
   -1
100
AcDbLine
 10
151.5000000000001
 20
24.6
 11
151.5
 21
26
  0
LINE
  5
136
100
AcDbEntity
  8
Esqueleto
  6
ByLayer
 62
  256
370
   -1
100
AcDbLine
 10
151.5
 20
26
 11
151.5
 21
105
  0
LINE
  5
137
100
AcDbEntity
  8
Esqueleto
  6
ByLayer
 62
  256
370
   -1
100
AcDbLine
 10
154.5
 20
105
 11
154.5
 21
26
  0
LINE
  5
138
100
AcDbEntity
  8
Esqueleto
  6
ByLayer
 62
  256
370
   -1
100
AcDbLine
 10
154.5
 20
26
 11
154.5
 21
24.6
  0
LINE
  5
139
100
AcDbEntity
  8
Esqueleto
  6
ByLayer
 62
  256
370
   -1
100
AcDbLine
 10
151.5
 20
105
 11
151.5
 21
120
  0
LINE
  5
13A
100
AcDbEntity
  8
Esqueleto
  6
ByLayer
 62
  256
370
   -1
100
AcDbLine
 10
154.5
 20
120
 11
154.5
 21
105
  0
LWPOLYLINE
  5
13B
100
AcDbEntity
  8
detalhes
  6
ByLayer
 62
  256
370
   -1
100
AcDbPolyline
 90
    4
 70
    0
 43
0
 10
178.9006656756677
 20
124.2539149700042
 42
-0.267949192431121
 10
179
 20
122
 42
-0.267949192431128
 10
178.203215530169
 20
123.7706311046167
 42
-0.2679491924311174
 10
178.9006656756677
 20
124.2539149700042
 42
-0.2679491924311174
  0
LWPOLYLINE
  5
13C
100
AcDbEntity
  8
detalhes
  6
ByLayer
 62
  256
370
   -1
100
AcDbPolyline
 90
    3
 70
    0
 43
0
 10
178.5029756786728
 20
123.6325452604331
 42
0.839099631177244
 10
178.8029756786728
 20
122.8325452604331
 42
0.8390996311772688
 10
178.8029756786728
 20
123.6325452604331
 42
0.8390996311772688
  0
LINE
  5
13D
100
AcDbEntity
  8
detalhes
  6
ByLayer
 62
  256
370
   -1
100
AcDbLine
 10
178.6229756786728
 20
123.8125452604331
 11
178.7029756786728
 21
123.2325452604331
  0
LWPOLYLINE
  5
13E
100
AcDbEntity
  8
detalhes
  6
ByLayer
 62
  256
370
   -1
100
AcDbPolyline
 90
    4
 70
    0
 43
0
 10
183.2
 20
124.2
 42
0.2679491924311189
 10
182.7
 20
122
 42
0.2679491924311276
 10
183.8
 20
123.6
 42
0.2679491924311221
 10
183.2
 20
124.2
 42
0.2679491924311221
  0
LINE
  5
13F
100
AcDbEntity
  8
detalhes
  6
ByLayer
 62
  256
370
   -1
100
AcDbLine
 10
183.2
 20
123.9
 11
183.2
 21
122.5
  0
LINE
  5
140
100
AcDbEntity
  8
detalhes
  6
ByLayer
 62
  256
370
   -1
100
AcDbLine
 10
183
 20
122.5
 11
183.4
 21
123.9
  0
LINE
  5
141
100
AcDbEntity
  8
detalhes
  6
ByLayer
 62
  256
370
   -1
100
AcDbLine
 10
183.4
 20
123.9
 11
183.6
 21
123.5
  0
LINE
  5
142
100
AcDbEntity
  8
detalhes
  6
ByLayer
 62
  256
370
   -1
100
AcDbLine
 10
183.6
 20
123.5
 11
182.8
 21
122.9
  0
LINE
  5
143
100
AcDbEntity
  8
detalhes
  6
ByLayer
 62
  256
370
   -1
100
AcDbLine
 10
183.2
 20
122.5
 11
183
 21
122.5
  0
LINE
  5
144
100
AcDbEntity
  8
Eletrônicos
  6
ByLayer
 62
  256
370
   -1
100
AcDbLine
 10
152.2
 20
130.9
 11
153.7
 21
130.9
  0
LINE
  5
145
100
AcDbEntity
  8
Eletrônicos
  6
ByLayer
 62
  256
370
   -1
100
AcDbLine
 10
153.7
 20
130.9
 11
153.7
 21
130.4
  0
LINE
  5
146
100
AcDbEntity
  8
Eletrônicos
  6
ByLayer
 62
  256
370
   -1
100
AcDbLine
 10
153.7
 20
130.4
 11
152.2
 21
130.4
  0
LINE
  5
147
100
AcDbEntity
  8
Eletrônicos
  6
ByLayer
 62
  256
370
   -1
100
AcDbLine
 10
152.2
 20
130.4
 11
152.2
 21
130.9
  0
LINE
  5
148
100
AcDbEntity
  8
Eletrônicos
  6
ByLayer
 62
  256
370
   -1
100
AcDbLine
 10
152.1
 20
112.5
 11
152.1
 21
119
  0
LINE
  5
149
100
AcDbEntity
  8
Eletrônicos
  6
ByLayer
 62
  256
370
   -1
100
AcDbLine
 10
152.1
 20
119
 11
153.9
 21
119
  0
LINE
  5
14A
100
AcDbEntity
  8
Eletrônicos
  6
ByLayer
 62
  256
370
   -1
100
AcDbLine
 10
153.9
 20
119
 11
153.9
 21
112.5
  0
LINE
  5
14B
100
AcDbEntity
  8
Eletrônicos
  6
ByLayer
 62
  256
370
   -1
100
AcDbLine
 10
153.9
 20
112.5
 11
152.1
 21
112.5
  0
LINE
  5
14C
100
AcDbEntity
  8
Eletrônicos
  6
ByLayer
 62
  256
370
   -1
100
AcDbLine
 10
152.1
 20
105.5
 11
152.1
 21
112
  0
LINE
  5
14D
100
AcDbEntity
  8
Eletrônicos
  6
ByLayer
 62
  256
370
   -1
100
AcDbLine
 10
152.1
 20
112
 11
153.9
 21
112
  0
LINE
  5
14E
100
AcDbEntity
  8
Eletrônicos
  6
ByLayer
 62
  256
370
   -1
100
AcDbLine
 10
153.9
 20
112
 11
153.9
 21
105.5
  0
LINE
  5
14F
100
AcDbEntity
  8
Eletrônicos
  6
ByLayer
 62
  256
370
   -1
100
AcDbLine
 10
153.9
 20
105.5
 11
152.1
 21
105.5
  0
LINE
  5
150
100
AcDbEntity
  8
Eletrônicos
  6
ByLayer
 62
  256
370
   -1
100
AcDbLine
 10
153.9973767702828
 20
19.50000076459275
 11
151.9973771101018
 21
19.50116664446705
  0
LINE
  5
151
100
AcDbEntity
  8
Eletrônicos
  6
ByLayer
 62
  256
370
   -1
100
AcDbLine
 10
154
 20
24
 11
152.000000339819
 21
24.0011658798743
  0
LINE
  5
152
100
AcDbEntity
  8
Eletrônicos
  6
ByLayer
 62
  256
370
   -1
100
AcDbLine
 10
152.0008945538967
 20
19.50116459400823
 11
153.9973767702828
 21
19.50000076459275
  0
LINE
  5
153
100
AcDbEntity
  8
Eletrônicos
  6
ByLayer
 62
  256
370
   -1
100
AcDbLine
 10
153.9973767702828
 20
19.50000076459275
 11
154
 21
24
  0
LINE
  5
154
100
AcDbEntity
  8
Eletrônicos
  6
ByLayer
 62
  256
370
   -1
100
AcDbLine
 10
152.000000339819
 20
24.0011658798743
 11
152.0008971095037
 21
19.50116459251847
  0
LINE
  5
155
100
AcDbEntity
  8
Esqueleto
  6
ByLayer
 62
  256
370
   -1
100
AcDbLine
 10
180
 20
24.6
 11
179.8
 21
24.6
  0
LINE
  5
156
100
AcDbEntity
  8
Esqueleto
  6
ByLayer
 62
  256
370
   -1
100
AcDbLine
 10
182
 20
24.6
 11
182.2
 21
24.6
  0
LINE
  5
157
100
AcDbEntity
  8
Esqueleto
  6
ByLayer
 62
  256
370
   -1
100
AcDbLine
 10
180
 20
24.6
 11
182
 21
24.6
  0
LINE
  5
158
100
AcDbEntity
  8
Esqueleto
  6
ByLayer
 62
  256
370
   -1
100
AcDbLine
 10
179.3
 20
19.1
 11
182.7
 21
19.1
  0
LINE
  5
159
100
AcDbEntity
  8
Esqueleto
  6
ByLayer
 62
  256
370
   -1
100
AcDbLine
 10
182.7
 20
19.1
 11
182.7
 21
24.6
  0
LINE
  5
15A
100
AcDbEntity
  8
Esqueleto
  6
ByLayer
 62
  256
370
   -1
100
AcDbLine
 10
182.7
 20
24.6
 11
179.3
 21
24.6
  0
LINE
  5
15B
100
AcDbEntity
  8
Esqueleto
  6
ByLayer
 62
  256
370
   -1
100
AcDbLine
 10
179.3
 20
24.6
 11
179.3
 21
19.1
  0
LINE
  5
15C
100
AcDbEntity
  8
Esqueleto
  6
ByLayer
 62
  256
370
   -1
100
AcDbLine
 10
179.5000000000001
 20
24.6
 11
179.5
 21
26
  0
LINE
  5
15D
100
AcDbEntity
  8
Esqueleto
  6
ByLayer
 62
  256
370
   -1
100
AcDbLine
 10
182.5
 20
26
 11
182.5
 21
24.6
  0
LINE
  5
15E
100
AcDbEntity
  8
Eletrônicos
  6
ByLayer
 62
  256
370
   -1
100
AcDbLine
 10
181.9973764304638
 20
19.49883488471845
 11
179.9973767702828
 21
19.50000076459275
  0
LINE
  5
15F
100
AcDbEntity
  8
Eletrônicos
  6
ByLayer
 62
  256
370
   -1
100
AcDbLine
 10
181.999999660181
 20
23.9988341201257
 11
180
 21
24
  0
LINE
  5
160
100
AcDbEntity
  8
Eletrônicos
  6
ByLayer
 62
  256
370
   -1
100
AcDbLine
 10
180.0008942140777
 20
19.49999871413393
 11
181.9973764304638
 21
19.49883488471845
  0
LINE
  5
161
100
AcDbEntity
  8
Eletrônicos
  6
ByLayer
 62
  256
370
   -1
100
AcDbLine
 10
181.9973764304638
 20
19.49883488471845
 11
181.999999660181
 21
23.9988341201257
  0
CIRCLE
  5
162
100
AcDbEntity
  8
Eletrônicos
  6
ByLayer
 62
  256
370
   -1
100
AcDbCircle
 10
180.9979595403105
 20
20.4994176547461
 40
0.7071067811865476
  0
CIRCLE
  5
163
100
AcDbEntity
  8
Eletrônicos
  6
ByLayer
 62
  256
370
   -1
100
AcDbCircle
 10
180.9994168901534
 20
22.99941722997235
 40
0.7071067811865476
  0
LINE
  5
164
100
AcDbEntity
  8
Eletrônicos
  6
ByLayer
 62
  256
370
   -1
100
AcDbLine
 10
180
 20
24
 11
180.0008967696847
 21
19.49999871264417
  0
LINE
  5
165
100
AcDbEntity
  8
medidas eletrônica
  6
ByLayer
 62
  256
370
   -1
100
AcDbLine
 10
215.8499999999999
 20
38.75
 11
214.95
 21
38.75
  0
LINE
  5
166
100
AcDbEntity
  8
medidas eletrônica
  6
ByLayer
 62
  256
370
   -1
100
AcDbLine
 10
224.8499999999999
 20
38.75
 11
225.7499999999999
 21
38.75
  0
LINE
  5
167
100
AcDbEntity
  8
medidas eletrônica
  6
ByLayer
 62
  256
370
   -1
100
AcDbLine
 10
224.8499984708144
 20
36.04475354056564
 11
215.8499999999999
 21
36.04999999999999
  0
LINE
  5
168
100
AcDbEntity
  8
medidas eletrônica
  6
ByLayer
 62
  256
370
   -1
100
AcDbLine
 10
215.8540239633497
 20
15.79999421360269
 11
224.8381939370871
 21
15.79475698123301
  0
LINE
  5
169
100
AcDbEntity
  8
medidas eletrônica
  6
ByLayer
 62
  256
370
   -1
100
AcDbLine
 10
224.8381939370871
 20
15.79475698123301
 11
224.8499984708144
 21
36.04475354056564
  0
CIRCLE
  5
16A
100
AcDbEntity
  8
medidas eletrônica
  6
ByLayer
 62
  256
370
   -1
100
AcDbCircle
 10
220.3408179313971
 20
20.29737944635743
 40
3.181980515339464
  0
CIRCLE
  5
16B
100
AcDbEntity
  8
medidas eletrônica
  6
ByLayer
 62
  256
370
   -1
100
AcDbCircle
 10
220.34737600569
 20
31.54737753487556
 40
3.181980515339464
  0
LINE
  5
16C
100
AcDbEntity
  8
medidas eletrônica
  6
ByLayer
 62
  256
370
   -1
100
AcDbLine
 10
215.8499999999999
 20
36.04999999999999
 11
215.8540354635813
 21
15.79999420689876
  0
LINE
  5
16D
100
AcDbEntity
  8
medidas eletrônica
  6
ByLayer
 62
    7
370
   -1
100
AcDbLine
 10
215.8499999999999
 20
38.75
 11
224.8499999999999
 21
38.75
  0
LINE
  5
16E
100
AcDbEntity
  8
medidas eletrônica
  6
ByLayer
 62
    7
370
   -1
100
AcDbLine
 10
212.7000000000001
 20
14.00000000000002
 11
228
 21
14
  0
LINE
  5
16F
100
AcDbEntity
  8
medidas eletrônica
  6
ByLayer
 62
    7
370
   -1
100
AcDbLine
 10
228
 20
14.00000000000002
 11
228
 21
38.75
  0
LINE
  5
170
100
AcDbEntity
  8
medidas eletrônica
  6
ByLayer
 62
    7
370
   -1
100
AcDbLine
 10
228
 20
38.75
 11
212.7
 21
38.75000000000001
  0
LINE
  5
171
100
AcDbEntity
  8
medidas eletrônica
  6
ByLayer
 62
    7
370
   -1
100
AcDbLine
 10
212.7
 20
38.75000000000001
 11
212.7
 21
14
  0
LINE
  5
172
100
AcDbEntity
  8
medidas eletrônica
  6
ByLayer
 62
    7
370
   -1
100
AcDbLine
 10
213.6000000000005
 20
38.75
 11
213.6
 21
45.05
  0
LINE
  5
173
100
AcDbEntity
  8
medidas eletrônica
  6
ByLayer
 62
    7
370
   -1
100
AcDbLine
 10
227.0999999999999
 20
45.05
 11
227.0999999999999
 21
38.75
  0
LINE
  5
174
100
AcDbEntity
  8
medidas eletrônica
  6
ByLayer
 62
    7
370
   -1
100
AcDbLine
 10
213.6
 20
45.00913131287268
 11
213.6
 21
48.9
  0
LINE
  5
175
100
AcDbEntity
  8
medidas eletrônica
  6
ByLayer
 62
    7
370
   -1
100
AcDbLine
 10
227.0999999999999
 20
45.05
 11
227.1
 21
48.7
  0
CIRCLE
  5
176
100
AcDbEntity
  8
medidas eletrônica
  6
DASHED
 62
  256
370
   -1
100
AcDbCircle
 10
220
 20
120
 40
21
  0
CIRCLE
  5
177
100
AcDbEntity
  8
medidas eletrônica
  6
DASHED
 62
  256
370
   -1
100
AcDbCircle
 10
221
 20
76.02379604162863
 40
21.02379604162864
  0
LINE
  5
178
100
AcDbEntity
  8
medidas eletrônica
  6
ByLayer
 62
  256
370
   -1
100
AcDbLine
 10
222.6880000000001
 20
75.33999999999999
 11
222.6880000000001
 21
91.72
  0
LINE
  5
179
100
AcDbEntity
  8
medidas eletrônica
  6
ByLayer
 62
  256
370
   -1
100
AcDbLine
 10
218.1519999999999
 20
91.72
 11
218.1519999999999
 21
75.33999999999999
  0
LINE
  5
17A
100
AcDbEntity
  8
medidas eletrônica
  6
ByLayer
 62
  256
370
   -1
100
AcDbLine
 10
218.1519999999999
 20
75.33999999999999
 11
222.6880000000001
 21
75.33999999999999
  0
LINE
  5
17B
100
AcDbEntity
  8
medidas eletrônica
  6
ByLayer
 62
  256
370
   -1
100
AcDbLine
 10
222.6880000000001
 20
57.69999999999998
 11
222.6880000000001
 21
74.07999999999998
  0
LINE
  5
17C
100
AcDbEntity
  8
medidas eletrônica
  6
ByLayer
 62
  256
370
   -1
100
AcDbLine
 10
222.6880000000001
 20
74.07999999999998
 11
218.1519999999999
 21
74.07999999999998
  0
LINE
  5
17D
100
AcDbEntity
  8
medidas eletrônica
  6
ByLayer
 62
  256
370
   -1
100
AcDbLine
 10
218.1519999999999
 20
74.07999999999998
 11
218.1519999999999
 21
57.69999999999998
  0
LINE
  5
17E
100
AcDbEntity
  8
medidas eletrônica
  6
ByLayer
 62
  256
370
   -1
100
AcDbLine
 10
222.6880000000001
 20
57.69999999999998
 11
218.1519999999999
 21
57.69999999999998
  0
LINE
  5
17F
100
AcDbEntity
  8
medidas eletrônica
  6
ByLayer
 62
  256
370
   -1
100
AcDbLine
 10
218.1519999999999
 20
91.72
 11
222.6880000000001
 21
91.72
  0
LINE
  5
180
100
AcDbEntity
  8
medidas eletrônica
  6
ByLayer
 62
    7
370
   -1
100
AcDbLine
 10
217
 20
55
 11
217
 21
96.59999999999999
  0
LINE
  5
181
100
AcDbEntity
  8
medidas eletrônica
  6
ByLayer
 62
    7
370
   -1
100
AcDbLine
 10
224.2
 20
96.8
 11
224.2
 21
54.99999999999999
  0
LINE
  5
182
100
AcDbEntity
  8
medidas eletrônica
  6
ByLayer
 62
  256
370
   -1
100
AcDbLine
 10
221
 20
110.8999999999999
 11
228.065
 21
110.8999999999999
  0
LINE
  5
183
100
AcDbEntity
  8
medidas eletrônica
  6
ByLayer
 62
  256
370
   -1
100
AcDbLine
 10
228.065
 20
110.8999999999999
 11
228.065
 21
128
  0
LINE
  5
184
100
AcDbEntity
  8
medidas eletrônica
  6
ByLayer
 62
  256
370
   -1
100
AcDbLine
 10
228.065
 20
128
 11
221
 21
128
  0
LINE
  5
185
100
AcDbEntity
  8
medidas eletrônica
  6
ByLayer
 62
  256
370
   -1
100
AcDbLine
 10
221
 20
128
 11
221
 21
110.8999999999999
  0
LINE
  5
186
100
AcDbEntity
  8
medidas eletrônica
  6
ByLayer
 62
  256
370
   -1
100
AcDbLine
 10
220
 20
108.56
 11
212.08
 21
108.56
  0
LINE
  5
187
100
AcDbEntity
  8
medidas eletrônica
  6
ByLayer
 62
  256
370
   -1
100
AcDbLine
 10
212.08
 20
108.56
 11
212.08
 21
128
  0
LINE
  5
188
100
AcDbEntity
  8
medidas eletrônica
  6
ByLayer
 62
  256
370
   -1
100
AcDbLine
 10
212.08
 20
128
 11
220
 21
128
  0
LINE
  5
189
100
AcDbEntity
  8
medidas eletrônica
  6
ByLayer
 62
  256
370
   -1
100
AcDbLine
 10
220
 20
128
 11
220
 21
108.56
  0
LINE
  5
18A
100
AcDbEntity
  8
medidas eletrônica
  6
ByLayer
 62
  256
370
   -1
100
AcDbLine
 10
214
 20
130
 11
226
 21
130
  0
LINE
  5
18B
100
AcDbEntity
  8
medidas eletrônica
  6
ByLayer
 62
  256
370
   -1
100
AcDbLine
 10
226
 20
130
 11
226
 21
133
  0
LINE
  5
18C
100
AcDbEntity
  8
medidas eletrônica
  6
ByLayer
 62
  256
370
   -1
100
AcDbLine
 10
226
 20
133
 11
214
 21
133
  0
LINE
  5
18D
100
AcDbEntity
  8
medidas eletrônica
  6
ByLayer
 62
  256
370
   -1
100
AcDbLine
 10
214
 20
133
 11
214
 21
130
  0
LINE
  5
18E
100
AcDbEntity
  8
Eletrônicos
  6
ByLayer
 62
  256
370
   -1
100
AcDbLine
 10
152.43
 20
123.2
 11
150.67
 21
123.2
  0
LINE
  5
18F
100
AcDbEntity
  8
Eletrônicos
  6
ByLayer
 62
  256
370
   -1
100
AcDbLine
 10
150.67
 20
123.2
 11
150.67
 21
127.52
  0
LINE
  5
190
100
AcDbEntity
  8
Eletrônicos
  6
ByLayer
 62
  256
370
   -1
100
AcDbLine
 10
150.67
 20
127.52
 11
152.43
 21
127.52
  0
LINE
  5
191
100
AcDbEntity
  8
Eletrônicos
  6
ByLayer
 62
  256
370
   -1
100
AcDbLine
 10
152.43
 20
127.52
 11
152.43
 21
123.2
  0
LINE
  5
192
100
AcDbEntity
  8
Eletrônicos
  6
ByLayer
 62
  256
370
   -1
100
AcDbLine
 10
153.43
 20
123.2
 11
155
 21
123.2
  0
LINE
  5
193
100
AcDbEntity
  8
Eletrônicos
  6
ByLayer
 62
  256
370
   -1
100
AcDbLine
 10
155
 20
123.2
 11
155
 21
127
  0
LINE
  5
194
100
AcDbEntity
  8
Eletrônicos
  6
ByLayer
 62
  256
370
   -1
100
AcDbLine
 10
155
 20
127
 11
153.43
 21
127
  0
LINE
  5
195
100
AcDbEntity
  8
Eletrônicos
  6
ByLayer
 62
  256
370
   -1
100
AcDbLine
 10
153.43
 20
127
 11
153.43
 21
123.2
  0
LINE
  5
196
100
AcDbEntity
  8
Eletrônicos
  6
ByLayer
 62
  256
370
   -1
100
AcDbLine
 10
151
 20
128
 11
155
 21
128
  0
LINE
  5
197
100
AcDbEntity
  8
Eletrônicos
  6
ByLayer
 62
  256
370
   -1
100
AcDbLine
 10
155
 20
128
 11
155
 21
129
  0
LINE
  5
198
100
AcDbEntity
  8
Eletrônicos
  6
ByLayer
 62
  256
370
   -1
100
AcDbLine
 10
155
 20
129
 11
151
 21
129
  0
LINE
  5
199
100
AcDbEntity
  8
Eletrônicos
  6
ByLayer
 62
  256
370
   -1
100
AcDbLine
 10
151
 20
129
 11
151
 21
128
  0
LINE
  5
19A
100
AcDbEntity
  8
Eletrônicos
  6
ByLayer
 62
  256
370
   -1
100
AcDbLine
 10
181.57
 20
123
 11
183.33
 21
123
  0
LINE
  5
19B
100
AcDbEntity
  8
Eletrônicos
  6
ByLayer
 62
  256
370
   -1
100
AcDbLine
 10
183.33
 20
123
 11
183.33
 21
127.32
  0
LINE
  5
19C
100
AcDbEntity
  8
Eletrônicos
  6
ByLayer
 62
  256
370
   -1
100
AcDbLine
 10
183.33
 20
127.32
 11
181.57
 21
127.32
  0
LINE
  5
19D
100
AcDbEntity
  8
Eletrônicos
  6
ByLayer
 62
  256
370
   -1
100
AcDbLine
 10
181.57
 20
127.32
 11
181.57
 21
123
  0
LINE
  5
19E
100
AcDbEntity
  8
Eletrônicos
  6
ByLayer
 62
  256
370
   -1
100
AcDbLine
 10
180.57
 20
123
 11
179
 21
123
  0
LINE
  5
19F
100
AcDbEntity
  8
Eletrônicos
  6
ByLayer
 62
  256
370
   -1
100
AcDbLine
 10
179
 20
123
 11
179
 21
126.8
  0
LINE
  5
1A0
100
AcDbEntity
  8
Eletrônicos
  6
ByLayer
 62
  256
370
   -1
100
AcDbLine
 10
179
 20
126.8
 11
180.57
 21
126.8
  0
LINE
  5
1A1
100
AcDbEntity
  8
Eletrônicos
  6
ByLayer
 62
  256
370
   -1
100
AcDbLine
 10
180.57
 20
126.8
 11
180.57
 21
123
  0
LINE
  5
1A2
100
AcDbEntity
  8
Eletrônicos
  6
ByLayer
 62
  256
370
   -1
100
AcDbLine
 10
183
 20
127.8
 11
179
 21
127.8
  0
LINE
  5
1A3
100
AcDbEntity
  8
Eletrônicos
  6
ByLayer
 62
  256
370
   -1
100
AcDbLine
 10
179
 20
127.8
 11
179
 21
128.8
  0
LINE
  5
1A4
100
AcDbEntity
  8
Eletrônicos
  6
ByLayer
 62
  256
370
   -1
100
AcDbLine
 10
179
 20
128.8
 11
183
 21
128.8
  0
LINE
  5
1A5
100
AcDbEntity
  8
Eletrônicos
  6
ByLayer
 62
  256
370
   -1
100
AcDbLine
 10
183
 20
128.8
 11
183
 21
127.8
  0
LINE
  5
1A6
100
AcDbEntity
  8
medidas eletrônica
  6
ByLayer
 62
  256
370
   -1
100
AcDbLine
 10
217.9999999999999
 20
139.85
 11
222.1999999999999
 21
139.85
  0
MTEXT
  5
1A7
100
AcDbEntity
  8
medidas eletrônica
  6
ByLayer
 62
  256
370
   -1
100
AcDbMText
 10
214.2
 20
132.5
 30
0
 40
2
 41
11.11111111111139
 71
    1
 72
    1
  1
Vibracall
  7
standard
210
0
220
0
230
1
 50
0
 73
    2
 44
1
  0
MTEXT
  5
1A8
100
AcDbEntity
  8
medidas eletrônica
  6
ByLayer
 62
  256
370
   -1
100
AcDbMText
 10
214.0014148779559
 20
113.9247835792935
 30
0
 40
2
 41
9.55555555555565
 71
    1
 72
    1
  1
Arduino\PNano
  7
standard
210
0
220
0
230
1
 50
92.1553
 73
    2
 44
1
  0
MTEXT
  5
1A9
100
AcDbEntity
  8
medidas eletrônica
  6
ByLayer
 62
  256
370
   -1
100
AcDbMText
 10
221.613740777014
 20
113.3896739912668
 30
0
 40
2
 41
12.44444444444454
 71
    1
 72
    1
  1
Bluetooth\PHC-08
  7
standard
210
0
220
0
230
1
 50
88.2101
 73
    2
 44
1
  0
LINE
  5
1AA
100
AcDbEntity
  8
medidas eletrônica
  6
ByLayer
 62
  256
370
   -1
100
AcDbLine
 10
217
 20
138
 11
217.9999999999999
 21
139.85
  0
LINE
  5
1AB
100
AcDbEntity
  8
medidas eletrônica
  6
ByLayer
 62
  256
370
   -1
100
AcDbLine
 10
221.5
 20
138
 11
217
 21
138
  0
LINE
  5
1AC
100
AcDbEntity
  8
medidas eletrônica
  6
ByLayer
 62
  256
370
   -1
100
AcDbLine
 10
222.1999999999999
 20
139.85
 11
221.5
 21
138
  0
MTEXT
  5
1AD
100
AcDbEntity
  8
medidas eletrônica
  6
ByLayer
 62
  256
370
   -1
100
AcDbMText
 10
218
 20
139.7
 30
0
 40
1.5
 41
3.499999681996775
 71
    1
 72
    1
  1
USB\P
  7
standard
210
0
220
0
230
1
 50
0
 73
    2
 44
1
  0
LINE
  5
1AE
100
AcDbEntity
  8
medidas eletrônica
  6
ByLayer
 62
    7
370
   -1
100
AcDbLine
 10
214.85
 20
101
 11
214.8
 21
99.7
  0
LINE
  5
1AF
100
AcDbEntity
  8
medidas eletrônica
  6
ByLayer
 62
    7
370
   -1
100
AcDbLine
 10
225.3499999999999
 20
101
 11
225.4
 21
99.7
  0
MTEXT
  5
1B0
100
AcDbEntity
  8
medidas eletrônica
  6
ByLayer
 62
  256
370
   -1
100
AcDbMText
 10
216.2666669846699
 20
27
 30
0
 40
1.5
 41
8.33333301533011
 71
    1
 72
    1
  1
HC-SR04
  7
standard
210
0
220
0
230
1
 50
0
 73
    2
 44
1
  0
MTEXT
  5
1B1
100
AcDbEntity
  8
medidas eletrônica
  6
ByLayer
 62
  256
370
   -1
100
AcDbMText
 10
219.0159348321872
 20
60.32653627513268
 30
0
 40
2
 41
9.111111111111297
 71
    1
 72
    1
  1
Bateria
  7
standard
210
0
220
0
230
1
 50
90.1955
 73
    2
 44
1
  0
MTEXT
  5
1B2
100
AcDbEntity
  8
medidas eletrônica
  6
ByLayer
 62
  256
370
   -1
100
AcDbMText
 10
219.1697515255393
 20
78.26418240432415
 30
0
 40
2
 41
9.111111111111297
 71
    1
 72
    1
  1
Bateria
  7
standard
210
0
220
0
230
1
 50
92.0686
 73
    2
 44
1
  0
LWPOLYLINE
  5
1B3
100
AcDbEntity
  8
medidas eletrônica
  6
ByLayer
 62
    1
370
   -1
100
AcDbPolyline
 90
    4
 70
    0
 43
0
 10
212.7523298648368
 20
115.8887023950147
 42
-0.2679491924311207
 10
213.0999999999999
 20
107.9999999999999
 42
-0.2679491924311365
 10
210.3112543555913
 20
114.1972088661584
 42
-0.2679491924311186
 10
212.7523298648368
 20
115.8887023950147
 42
-0.2679491924311186
  0
LWPOLYLINE
  5
1B4
100
AcDbEntity
  8
medidas eletrônica
  6
ByLayer
 62
    1
370
   -1
100
AcDbPolyline
 90
    3
 70
    0
 43
0
 10
211.3604148753546
 20
113.7139084115159
 42
0.8390996311772869
 10
212.4104148753547
 20
110.9139084115158
 42
0.8390996311772635
 10
212.4104148753547
 20
113.7139084115159
 42
0.8390996311772635
  0
LINE
  5
1B5
100
AcDbEntity
  8
medidas eletrônica
  6
ByLayer
 62
    1
370
   -1
100
AcDbLine
 10
211.7804148753547
 20
114.3439084115158
 11
212.0604148753547
 21
112.3139084115159
  0
LWPOLYLINE
  5
1B6
100
AcDbEntity
  8
medidas eletrônica
  6
ByLayer
 62
    1
370
   -1
100
AcDbPolyline
 90
    4
 70
    0
 43
0
 10
227.8
 20
115.7
 42
0.2679491924311193
 10
226.05
 20
108
 42
0.2679491924311276
 10
229.9000000000001
 20
113.6
 42
0.267949192431123
 10
227.8
 20
115.7
 42
0.267949192431123
  0
LINE
  5
1B7
100
AcDbEntity
  8
medidas eletrônica
  6
ByLayer
 62
    1
370
   -1
100
AcDbLine
 10
227.8
 20
114.65
 11
227.8
 21
109.75
  0
LINE
  5
1B8
100
AcDbEntity
  8
medidas eletrônica
  6
ByLayer
 62
    1
370
   -1
100
AcDbLine
 10
227.1
 20
109.75
 11
228.5
 21
114.65
  0
LINE
  5
1B9
100
AcDbEntity
  8
medidas eletrônica
  6
ByLayer
 62
    1
370
   -1
100
AcDbLine
 10
228.5
 20
114.65
 11
229.2
 21
113.25
  0
LINE
  5
1BA
100
AcDbEntity
  8
medidas eletrônica
  6
ByLayer
 62
    1
370
   -1
100
AcDbLine
 10
229.2
 20
113.25
 11
226.4
 21
111.15
  0
LINE
  5
1BB
100
AcDbEntity
  8
medidas eletrônica
  6
ByLayer
 62
    1
370
   -1
100
AcDbLine
 10
227.8
 20
109.75
 11
227.1
 21
109.75
  0
MTEXT
  5
1BC
100
AcDbEntity
  8
medidas estrutura
  6
ByLayer
 62
  256
370
   -1
100
AcDbMText
 10
170.4444444444443
 20
127
 30
0
 40
2
 41
3.777777777777778
 71
    1
 72
    1
  1
80%%D
  7
standard
210
0
220
0
230
1
 50
0
 73
    2
 44
1
  0
LWPOLYLINE
  5
1BD
100
AcDbEntity
  8
medidas eletrônica
  6
ByLayer
 62
    7
370
   -1
100
AcDbPolyline
 90
    3
 70
    0
 43
0
 10
216.5999999999999
 20
139.5
 42
0.153914721059829
 10
208.2
 20
122
 42
0.1539147210598292
 10
214.85
 20
101
 42
0.1539147210598292
  0
LWPOLYLINE
  5
1BE
100
AcDbEntity
  8
medidas eletrônica
  6
ByLayer
 62
    7
370
   -1
100
AcDbPolyline
 90
    3
 70
    0
 43
0
 10
225.3499999999999
 20
101
 42
0.1539147210598293
 10
232.0000000000001
 20
122
 42
0.1539147210598291
 10
223.5999999999999
 20
139.5
 42
0.1539147210598291
  0
LWPOLYLINE
  5
1BF
100
AcDbEntity
  8
medidas eletrônica
  6
ByLayer
 62
    7
370
   -1
100
AcDbPolyline
 90
    2
 70
    0
 43
0
 10
216.6
 20
139.5
 42
-0.153914721059829
 10
223.6
 20
139.5
 42
-0.153914721059829
  0
DIMENSION
  5
1C0
100
AcDbEntity
  8
medidas estrutura
  6
ByLayer
 62
  256
370
   -1
100
AcDbDimension
  2
*D4
 10
156.4
 20
126
 30
0
 11
153
 21
128.8125
 31
0
 70
   33
  1
5.8cm
 71
    5
  3
Standard
 53
0
210
0
220
0
230
1
100
AcDbAlignedDimension
 13
149.6
 23
125.8
 33
0
 14
156.4
 24
125.8
 34
0
  0
DIMENSION
  5
1C1
100
AcDbEntity
  8
medidas estrutura
  6
ByLayer
 62
  256
370
   -1
100
AcDbDimension
  2
*D5
 10
154
 20
131
 30
0
 11
153
 21
133.8125
 31
0
 70
   33
  1
2cm
 71
    5
  3
Standard
 53
0
210
0
220
0
230
1
100
AcDbAlignedDimension
 13
152
 23
131
 33
0
 14
154
 24
131
 34
0
  0
LINE
  5
1C2
100
AcDbEntity
  8
Esqueleto
  6
ByLayer
 62
  256
370
   -1
100
AcDbLine
 10
100.2333333333333
 20
131.0000000000001
 11
98.23333333333332
 21
129.0000000000001
  0
LINE
  5
1C3
100
AcDbEntity
  8
Eletrônicos
  6
ByLayer
 62
  256
370
   -1
100
AcDbLine
 10
96.33333333333331
 20
112.5
 11
96.33333333333331
 21
119
  0
LINE
  5
1C4
100
AcDbEntity
  8
Eletrônicos
  6
ByLayer
 62
  256
370
   -1
100
AcDbLine
 10
96.33333333333331
 20
105.5
 11
96.33333333333331
 21
112
  0
LINE
  5
1C5
100
AcDbEntity
  8
Eletrônicos
  6
ByLayer
 62
  256
370
   -1
100
AcDbLine
 10
96.33333333333331
 20
112
 11
97.83333333333331
 21
112
  0
LINE
  5
1C6
100
AcDbEntity
  8
Eletrônicos
  6
ByLayer
 62
  256
370
   -1
100
AcDbLine
 10
97.83333333333331
 20
112
 11
97.83333333333331
 21
105.5
  0
LINE
  5
1C7
100
AcDbEntity
  8
Eletrônicos
  6
ByLayer
 62
  256
370
   -1
100
AcDbLine
 10
97.83333333333331
 20
105.5
 11
96.33333333333331
 21
105.5
  0
LINE
  5
1C8
100
AcDbEntity
  8
Eletrônicos
  6
ByLayer
 62
  256
370
   -1
100
AcDbLine
 10
96.33333333333331
 20
119
 11
97.83333333333331
 21
119
  0
LINE
  5
1C9
100
AcDbEntity
  8
Eletrônicos
  6
ByLayer
 62
  256
370
   -1
100
AcDbLine
 10
97.83333333333331
 20
119
 11
97.83333333333331
 21
112.5
  0
LINE
  5
1CA
100
AcDbEntity
  8
Eletrônicos
  6
ByLayer
 62
  256
370
   -1
100
AcDbLine
 10
97.83333333333331
 20
112.5
 11
96.33333333333331
 21
112.5
  0
MTEXT
  5
1CB
100
AcDbEntity
  8
0
  6
ByLayer
 62
  256
370
   -1
100
AcDbMText
 10
92.23333333333331
 20
9.999999999998948
 30
0
 40
2
 41
11.55555658413004
 71
    1
 72
    1
  1
Esquerda
  7
standard
210
0
220
0
230
1
 50
0
 73
    2
 44
1
  0
MTEXT
  5
1CC
100
AcDbEntity
  8
0
  6
ByLayer
 62
  256
370
   -1
100
AcDbMText
 10
120.8999999999998
 20
9.999999999998948
 30
0
 40
2
 41
8.222222222222438
 71
    1
 72
    1
  1
Direita
  7
standard
210
0
220
0
230
1
 50
0
 73
    2
 44
1
  0
LINE
  5
1CD
100
AcDbEntity
  8
medidas estrutura
  6
ByLayer
 62
  256
370
   -1
100
AcDbLine
 10
120.3334553009021
 20
128.9994923302698
 11
120.3338539516207
 21
128.9990139494074
  0
LWPOLYLINE
  5
1CE
100
AcDbEntity
  8
medidas estrutura
  6
ByLayer
 62
  256
370
   -1
100
AcDbPolyline
 90
    2
 70
    0
 43
0
 10
120.3333333333333
 20
128.9999999999989
 42
0.5773502691896224
 10
124.3333333333333
 20
119.9999999999989
 42
0.5773502691896224
  0
LINE
  5
1CF
100
AcDbEntity
  8
medidas estrutura
  6
ByLayer
 62
  256
370
   -1
100
AcDbLine
 10
124.33724427099
 20
119.9979507514832
 11
122.2511630147234
 21
123.0390467697392
  0
LINE
  5
1D0
100
AcDbEntity
  8
medidas estrutura
  6
ByLayer
 62
  256
370
   -1
100
AcDbLine
 10
120.6527187026253
 20
120.1537433574235
 11
124.33724427099
 21
119.9979507514832
  0
LINE
  5
1D1
100
AcDbEntity
  8
medidas estrutura
  6
ByLayer
 62
  256
370
   -1
100
AcDbLine
 10
122.2333333333333
 20
122.9999999999989
 11
120.6527187026253
 21
120.1537433574235
  0
LINE
  5
1D2
100
AcDbEntity
  8
medidas estrutura
  6
ByLayer
 62
  256
370
   -1
100
AcDbLine
 10
130.0372442709901
 20
119.8979507514833
 11
127.9511630147234
 21
122.9390467697393
  0
LINE
  5
1D3
100
AcDbEntity
  8
medidas estrutura
  6
ByLayer
 62
  256
370
   -1
100
AcDbLine
 10
126.3527187026253
 20
120.0537433574235
 11
130.0372442709901
 21
119.8979507514833
  0
LINE
  5
1D4
100
AcDbEntity
  8
medidas estrutura
  6
ByLayer
 62
  256
370
   -1
100
AcDbLine
 10
127.9333333333333
 20
122.899999999999
 11
126.3527187026253
 21
120.0537433574235
  0
LINE
  5
1D5
100
AcDbEntity
  8
medidas estrutura
  6
ByLayer
 62
  256
370
   -1
100
AcDbLine
 10
120.3843162791301
 20
129.0223034662974
 11
117.6213164020746
 21
126.6130354024455
  0
LINE
  5
1D6
100
AcDbEntity
  8
medidas estrutura
  6
ByLayer
 62
  256
370
   -1
100
AcDbLine
 10
120.5762245903651
 20
125.3812787199302
 11
120.3419212216657
 21
129.0616458118674
  0
LINE
  5
1D7
100
AcDbEntity
  8
medidas estrutura
  6
ByLayer
 62
  256
370
   -1
100
AcDbLine
 10
117.5789213446102
 20
126.6523777480157
 11
120.5762245903651
 21
125.3812787199302
  0
LINE
  5
1D8
100
AcDbEntity
  8
medidas estrutura
  6
ByLayer
 62
  256
370
   -1
100
AcDbLine
 10
124.9749829381665
 20
132.9101974372732
 11
122.3522111885393
 21
130.9813149018215
  0
LINE
  5
1D9
100
AcDbEntity
  8
medidas estrutura
  6
ByLayer
 62
  256
370
   -1
100
AcDbLine
 10
122.3522111885393
 20
130.9813149018215
 11
125.6367856508489
 21
129.3045410346759
  0
LWPOLYLINE
  5
1DA
100
AcDbEntity
  8
medidas estrutura
  6
ByLayer
 62
  256
370
   -1
100
AcDbPolyline
 90
    2
 70
    0
 43
0
 10
125.2333333333333
 20
131.199999999999
 42
-0.5773502691896285
 10
128.9333333333333
 20
121.2999999999989
 42
-0.5773502691896285
  0
LINE
  5
1DB
100
AcDbEntity
  8
Esqueleto
  6
ByLayer
 62
  256
370
   -1
100
AcDbLine
 10
124.3333333333333
 20
25.99999999999893
 11
124.3333333333333
 21
104.9999999999989
  0
LINE
  5
1DC
100
AcDbEntity
  8
Esqueleto
  6
ByLayer
 62
  256
370
   -1
100
AcDbLine
 10
127.3333333333333
 20
104.9999999999989
 11
127.3333333333333
 21
25.99999999999893
  0
LINE
  5
1DD
100
AcDbEntity
  8
Esqueleto
  6
ByLayer
 62
  256
370
   -1
100
AcDbLine
 10
124.3333333333333
 20
104.9999999999989
 11
124.3333333333333
 21
119.9999999999989
  0
LINE
  5
1DE
100
AcDbEntity
  8
Esqueleto
  6
ByLayer
 62
  256
370
   -1
100
AcDbLine
 10
127.3333333333333
 20
119.9999999999989
 11
127.3333333333333
 21
104.9999999999989
  0
LINE
  5
1DF
100
AcDbEntity
  8
Esqueleto
  6
ByLayer
 62
  256
370
   -1
100
AcDbLine
 10
96.49999999999997
 20
24.6
 11
96.29999999999998
 21
24.6
  0
LINE
  5
1E0
100
AcDbEntity
  8
Esqueleto
  6
ByLayer
 62
  256
370
   -1
100
AcDbLine
 10
98.49999999999997
 20
24.6
 11
98.69999999999996
 21
24.6
  0
LINE
  5
1E1
100
AcDbEntity
  8
Esqueleto
  6
ByLayer
 62
  256
370
   -1
100
AcDbLine
 10
96.49999999999997
 20
24.6
 11
98.49999999999997
 21
24.6
  0
LINE
  5
1E2
100
AcDbEntity
  8
Esqueleto
  6
ByLayer
 62
  256
370
   -1
100
AcDbLine
 10
95.80000000000001
 20
19.1
 11
99.19999999999999
 21
19.1
  0
LINE
  5
1E3
100
AcDbEntity
  8
Esqueleto
  6
ByLayer
 62
  256
370
   -1
100
AcDbLine
 10
99.19999999999999
 20
19.1
 11
99.19999999999999
 21
24.6
  0
LINE
  5
1E4
100
AcDbEntity
  8
Esqueleto
  6
ByLayer
 62
  256
370
   -1
100
AcDbLine
 10
99.19999999999999
 20
24.6
 11
95.79999999999998
 21
24.6
  0
LINE
  5
1E5
100
AcDbEntity
  8
Esqueleto
  6
ByLayer
 62
  256
370
   -1
100
AcDbLine
 10
96.00000000000011
 20
24.6
 11
96
 21
26
  0
LINE
  5
1E6
100
AcDbEntity
  8
Esqueleto
  6
ByLayer
 62
  256
370
   -1
100
AcDbLine
 10
96
 20
26
 11
96
 21
105
  0
LINE
  5
1E7
100
AcDbEntity
  8
Esqueleto
  6
ByLayer
 62
  256
370
   -1
100
AcDbLine
 10
98.99999999999997
 20
105
 11
98.99999999999997
 21
26
  0
LINE
  5
1E8
100
AcDbEntity
  8
Esqueleto
  6
ByLayer
 62
  256
370
   -1
100
AcDbLine
 10
98.99999999999997
 20
26
 11
98.99999999999997
 21
24.6
  0
LINE
  5
1E9
100
AcDbEntity
  8
Esqueleto
  6
ByLayer
 62
  256
370
   -1
100
AcDbLine
 10
96
 20
105
 11
96
 21
120
  0
LINE
  5
1EA
100
AcDbEntity
  8
Esqueleto
  6
ByLayer
 62
  256
370
   -1
100
AcDbLine
 10
98.99999999999997
 20
120
 11
98.99999999999997
 21
105
  0
ARC
  5
1EB
100
AcDbEntity
  8
Esqueleto
  6
ByLayer
 62
  256
370
   -1
100
AcDbCircle
 10
110.6166666666667
 20
121.1500000000001
 40
14.6618363257965
100
AcDbArc
 50
147.6287130647674
 51
184.4986107106114
  0
LWPOLYLINE
  5
1EC
100
AcDbEntity
  8
Esqueleto
  6
ByLayer
 62
  256
370
   -1
100
AcDbPolyline
 90
    2
 70
    0
 43
0
 10
102.5666666666666
 20
128.9999999999989
 42
0.5773502691895998
 10
100.2333333333333
 20
131.0000000000001
 42
0.5773502691895998
  0
ARC
  5
1ED
100
AcDbEntity
  8
Esqueleto
  6
ByLayer
 62
  256
370
   -1
100
AcDbCircle
 10
114.2833333333317
 20
119.1499999999995
 40
15.30695194275237
100
AcDbArc
 50
139.9468117173213
 51
176.8167093631653
  0
LINE
  5
1EE
100
AcDbEntity
  8
Esqueleto
  6
ByLayer
 62
  256
370
   -1
100
AcDbLine
 10
123.1
 20
130.999999999999
 11
125.1
 21
128.999999999999
  0
ARC
  5
1EF
100
AcDbEntity
  8
Esqueleto
  6
ByLayer
 62
  256
370
   -1
100
AcDbCircle
 10
112.7166666666666
 20
121.149999999999
 40
14.6618363257965
100
AcDbArc
 50
355.5013892893886
 51
32.37128693523263
  0
LWPOLYLINE
  5
1F0
100
AcDbEntity
  8
Esqueleto
  6
ByLayer
 62
  256
370
   -1
100
AcDbPolyline
 90
    2
 70
    0
 43
0
 10
120.7666666666667
 20
128.9999999999979
 42
-0.5773502691896351
 10
123.1
 20
130.999999999999
 42
-0.5773502691896351
  0
ARC
  5
1F1
100
AcDbEntity
  8
Esqueleto
  6
ByLayer
 62
  256
370
   -1
100
AcDbCircle
 10
109.0500000000016
 20
119.1499999999984
 40
15.30695194275237
100
AcDbArc
 50
3.18329063683469
 51
40.0531882826787
  0
LWPOLYLINE
  5
1F2
100
AcDbEntity
  8
detalhes
  6
ByLayer
 62
  256
370
   -1
100
AcDbPolyline
 90
    4
 70
    0
 43
0
 10
96.86921652116813
 20
124.4832838653865
 42
0.2679491924311191
 10
96.76988219683572
 20
122.2293688953823
 42
0.2679491924311266
 10
97.56666666666663
 20
123.9999999999989
 42
0.2679491924311208
 10
96.86921652116803
 20
124.4832838653865
 42
0.2679491924311208
  0
LINE
  5
1F3
100
AcDbEntity
  8
detalhes
  6
ByLayer
 62
  256
370
   -1
100
AcDbLine
 10
96.96690651816292
 20
124.2619141558143
 11
96.96690651816292
 21
122.8619141558142
  0
LINE
  5
1F4
100
AcDbEntity
  8
detalhes
  6
ByLayer
 62
  256
370
   -1
100
AcDbLine
 10
96.76690651816293
 20
122.8619141558142
 11
97.16690651816292
 21
124.2619141558143
  0
LINE
  5
1F5
100
AcDbEntity
  8
detalhes
  6
ByLayer
 62
  256
370
   -1
100
AcDbLine
 10
97.16690651816292
 20
124.2619141558143
 11
97.36690651816292
 21
123.8619141558142
  0
LINE
  5
1F6
100
AcDbEntity
  8
detalhes
  6
ByLayer
 62
  256
370
   -1
100
AcDbLine
 10
97.36690651816292
 20
123.8619141558142
 11
96.56690651816292
 21
123.2619141558143
  0
LINE
  5
1F7
100
AcDbEntity
  8
detalhes
  6
ByLayer
 62
  256
370
   -1
100
AcDbLine
 10
96.76690651816293
 20
122.8619141558142
 11
96.96690651816292
 21
122.8619141558142
  0
LWPOLYLINE
  5
1F8
100
AcDbEntity
  8
detalhes
  6
ByLayer
 62
  256
370
   -1
100
AcDbPolyline
 90
    4
 70
    0
 43
0
 10
126.4673323423343
 20
124.2539149700032
 42
-0.2679491924311288
 10
126.5666666666666
 20
121.9999999999989
 42
-0.2679491924311321
 10
125.7698821968356
 20
123.7706311046157
 42
-0.2679491924311439
 10
126.4673323423343
 20
124.2539149700032
 42
-0.2679491924311439
  0
LWPOLYLINE
  5
1F9
100
AcDbEntity
  8
detalhes
  6
ByLayer
 62
  256
370
   -1
100
AcDbPolyline
 90
    3
 70
    0
 43
0
 10
126.0696423453394
 20
123.632545260432
 42
0.8390996311772765
 10
126.3696423453394
 20
122.832545260432
 42
0.8390996311772552
 10
126.3696423453394
 20
123.6325452604321
 42
0.8390996311772552
  0
LINE
  5
1FA
100
AcDbEntity
  8
detalhes
  6
ByLayer
 62
  256
370
   -1
100
AcDbLine
 10
126.1896423453394
 20
123.8125452604321
 11
126.2696423453394
 21
123.232545260432
  0
LINE
  5
1FB
100
AcDbEntity
  8
Eletrônicos
  6
ByLayer
 62
  256
370
   -1
100
AcDbLine
 10
126.9666666666666
 20
112.4999999999989
 11
126.9666666666666
 21
118.9999999999989
  0
LINE
  5
1FC
100
AcDbEntity
  8
Eletrônicos
  6
ByLayer
 62
  256
370
   -1
100
AcDbLine
 10
126.9666666666666
 20
105.4999999999989
 11
126.9666666666666
 21
111.9999999999989
  0
LINE
  5
1FD
100
AcDbEntity
  8
Eletrônicos
  6
ByLayer
 62
  256
370
   -1
100
AcDbLine
 10
126.9666666666666
 20
111.9999999999989
 11
125.4666666666666
 21
111.9999999999989
  0
LINE
  5
1FE
100
AcDbEntity
  8
Eletrônicos
  6
ByLayer
 62
  256
370
   -1
100
AcDbLine
 10
125.4666666666666
 20
111.9999999999989
 11
125.4666666666666
 21
105.4999999999989
  0
LINE
  5
1FF
100
AcDbEntity
  8
Eletrônicos
  6
ByLayer
 62
  256
370
   -1
100
AcDbLine
 10
125.4666666666666
 20
105.4999999999989
 11
126.9666666666666
 21
105.4999999999989
  0
LINE
  5
200
100
AcDbEntity
  8
Eletrônicos
  6
ByLayer
 62
  256
370
   -1
100
AcDbLine
 10
126.9666666666666
 20
118.9999999999989
 11
125.4666666666666
 21
118.9999999999989
  0
LINE
  5
201
100
AcDbEntity
  8
Eletrônicos
  6
ByLayer
 62
  256
370
   -1
100
AcDbLine
 10
125.4666666666666
 20
118.9999999999989
 11
125.4666666666666
 21
112.4999999999989
  0
LINE
  5
202
100
AcDbEntity
  8
Eletrônicos
  6
ByLayer
 62
  256
370
   -1
100
AcDbLine
 10
125.4666666666666
 20
112.4999999999989
 11
126.9666666666666
 21
112.4999999999989
  0
LINE
  5
203
100
AcDbEntity
  8
Eletrônicos
  6
ByLayer
 62
  256
370
   -1
100
AcDbLine
 10
97.16666666666663
 20
19.59999999999895
 11
97.0215572698314
 21
19.5620096992616
  0
LINE
  5
204
100
AcDbEntity
  8
Eletrônicos
  6
ByLayer
 62
  256
370
   -1
100
AcDbLine
 10
97.16666666666663
 20
19.59999999999895
 11
96.00163077738785
 21
24.05002150294614
  0
LINE
  5
205
100
AcDbEntity
  8
Eletrônicos
  6
ByLayer
 62
  256
370
   -1
100
AcDbLine
 10
95.85652138055261
 20
24.0120312022088
 11
96.00163077738785
 21
24.05002150294614
  0
LINE
  5
206
100
AcDbEntity
  8
Eletrônicos
  6
ByLayer
 62
  256
370
   -1
100
AcDbLine
 10
97.0215572698314
 20
19.5620096992616
 11
95.85652138055261
 21
24.0120312022088
  0
LINE
  5
207
100
AcDbEntity
  8
Eletrônicos
  6
ByLayer
 62
  256
370
   -1
100
AcDbLine
 10
95.88184824771085
 20
23.91529160431864
 11
94.72097307302899
 21
23.61136919841983
  0
LINE
  5
208
100
AcDbEntity
  8
Eletrônicos
  6
ByLayer
 62
  256
370
   -1
100
AcDbLine
 10
94.72097307302899
 20
23.61136919841983
 11
95.12620294756073
 21
22.06353563217732
  0
LINE
  5
209
100
AcDbEntity
  8
Eletrônicos
  6
ByLayer
 62
  256
370
   -1
100
AcDbLine
 10
95.12620294756073
 20
22.06353563217732
 11
96.28652357582246
 21
22.36957620758206
  0
LINE
  5
20A
100
AcDbEntity
  8
Eletrônicos
  6
ByLayer
 62
  256
370
   -1
100
AcDbLine
 10
96.56567366098318
 20
21.30332246128441
 11
95.4047984863013
 21
20.9994000553856
  0
LINE
  5
20B
100
AcDbEntity
  8
Eletrônicos
  6
ByLayer
 62
  256
370
   -1
100
AcDbLine
 10
95.4047984863013
 20
20.9994000553856
 11
95.81002836083306
 21
19.4515664891431
  0
LINE
  5
20C
100
AcDbEntity
  8
Eletrônicos
  6
ByLayer
 62
  256
370
   -1
100
AcDbLine
 10
95.81002836083306
 20
19.4515664891431
 11
96.97034898909479
 21
19.75760706454784
  0
LINE
  5
20D
100
AcDbEntity
  8
Esqueleto
  6
ByLayer
 62
  256
370
   -1
100
AcDbLine
 10
95.81066666666661
 20
19.45139999999895
 11
95.81099419538643
 21
19.45182123300894
  0
LINE
  5
20E
100
AcDbEntity
  8
Esqueleto
  6
ByLayer
 62
  256
370
   -1
100
AcDbLine
 10
95.79999999999998
 20
19.44842257135978
 11
95.81066666666661
 21
19.45139999999895
  0
LINE
  5
20F
100
AcDbEntity
  8
Esqueleto
  6
ByLayer
 62
  256
370
   -1
100
AcDbLine
 10
95.79999999999998
 20
19.44859802809406
 11
95.79999999999998
 21
19.1
  0
LINE
  5
210
100
AcDbEntity
  8
Esqueleto
  6
ByLayer
 62
  256
370
   -1
100
AcDbLine
 10
95.79999999999998
 20
19.44864815857941
 11
95.79999999999998
 21
19.44859802809406
  0
LINE
  5
211
100
AcDbEntity
  8
Esqueleto
  6
ByLayer
 62
  256
370
   -1
100
AcDbLine
 10
95.79999999999998
 20
19.44902413721947
 11
95.79999999999998
 21
19.44864815857941
  0
LINE
  5
212
100
AcDbEntity
  8
Esqueleto
  6
ByLayer
 62
  256
370
   -1
100
AcDbLine
 10
95.79999999999998
 20
24.6
 11
95.79999999999998
 21
24.07556365747988
  0
LINE
  5
213
100
AcDbEntity
  8
Esqueleto
  6
ByLayer
 62
  256
370
   -1
100
AcDbLine
 10
95.79999999999998
 20
24.07556365747988
 11
95.79996666666661
 21
23.89379999999895
  0
LINE
  5
214
100
AcDbEntity
  8
Esqueleto
  6
ByLayer
 62
  256
370
   -1
100
AcDbLine
 10
126.8394610352529
 20
24.61099894108228
 11
127.0394591043706
 21
24.61187777507487
  0
LINE
  5
215
100
AcDbEntity
  8
Esqueleto
  6
ByLayer
 62
  256
370
   -1
100
AcDbLine
 10
124.8394803440757
 20
24.60221060115641
 11
124.639482274958
 21
24.60133176716382
  0
LINE
  5
216
100
AcDbEntity
  8
Esqueleto
  6
ByLayer
 62
  256
370
   -1
100
AcDbLine
 10
126.8394610352529
 20
24.61099894108228
 11
124.8394803440757
 21
24.60221060115641
  0
LINE
  5
217
100
AcDbEntity
  8
Esqueleto
  6
ByLayer
 62
  256
370
   -1
100
AcDbLine
 10
127.563622211961
 20
19.11412795931924
 11
124.1636550369599
 21
19.09918778144525
  0
LINE
  5
218
100
AcDbEntity
  8
Esqueleto
  6
ByLayer
 62
  256
370
   -1
100
AcDbLine
 10
124.1636550369599
 20
19.09918778144526
 11
124.1394871021637
 21
24.59913468218236
  0
LINE
  5
219
100
AcDbEntity
  8
Esqueleto
  6
ByLayer
 62
  256
370
   -1
100
AcDbLine
 10
124.1394871021637
 20
24.59913468218236
 11
127.5394542771648
 21
24.61407486005634
  0
LINE
  5
21A
100
AcDbEntity
  8
Esqueleto
  6
ByLayer
 62
  256
370
   -1
100
AcDbLine
 10
127.339456208047
 20
24.61319602606375
 11
127.333304370099
 21
26.01318250988774
  0
LINE
  5
21B
100
AcDbEntity
  8
Esqueleto
  6
ByLayer
 62
  256
370
   -1
100
AcDbLine
 10
124.3333333333333
 20
25.99999999999893
 11
124.3394851712815
 21
24.60001351617494
  0
LINE
  5
21C
100
AcDbEntity
  8
Eletrônicos
  6
ByLayer
 62
  256
370
   -1
100
AcDbLine
 10
126.1947716546752
 20
19.60811776649645
 11
126.3400465864029
 21
19.57076546788601
  0
LINE
  5
21D
100
AcDbEntity
  8
Eletrônicos
  6
ByLayer
 62
  256
370
   -1
100
AcDbLine
 10
126.1947716546752
 20
19.60811776649645
 11
127.3402421453955
 21
24.06321567281558
  0
LINE
  5
21E
100
AcDbEntity
  8
Eletrônicos
  6
ByLayer
 62
  256
370
   -1
100
AcDbLine
 10
127.4855170771233
 20
24.02586337420513
 11
127.3402421453955
 21
24.06321567281558
  0
LINE
  5
21F
100
AcDbEntity
  8
Eletrônicos
  6
ByLayer
 62
  256
370
   -1
100
AcDbLine
 10
126.3400465864029
 20
19.57076546788601
 11
127.4855170771233
 21
24.02586337420513
  0
LINE
  5
220
100
AcDbEntity
  8
Eletrônicos
  6
ByLayer
 62
  256
370
   -1
100
AcDbLine
 10
127.4606155447163
 20
23.92901341971993
 11
128.6228149985387
 21
23.63019503083638
  0
LINE
  5
221
100
AcDbEntity
  8
Eletrônicos
  6
ByLayer
 62
  256
370
   -1
100
AcDbLine
 10
128.6228149985387
 20
23.63019503083638
 11
128.2243904800273
 21
22.0805957590732
  0
LINE
  5
222
100
AcDbEntity
  8
Eletrônicos
  6
ByLayer
 62
  256
370
   -1
100
AcDbLine
 10
128.2243904800273
 20
22.0805957590732
 11
127.0627362596744
 21
22.38153473378423
  0
LINE
  5
223
100
AcDbEntity
  8
Eletrônicos
  6
ByLayer
 62
  256
370
   -1
100
AcDbLine
 10
126.7882741697283
 20
21.31406464861957
 11
127.9504736235507
 21
21.01524625973602
  0
LINE
  5
224
100
AcDbEntity
  8
Eletrônicos
  6
ByLayer
 62
  256
370
   -1
100
AcDbLine
 10
127.9504736235507
 20
21.01524625973602
 11
127.5520491050393
 21
19.46564698797285
  0
LINE
  5
225
100
AcDbEntity
  8
Eletrônicos
  6
ByLayer
 62
  256
370
   -1
100
AcDbLine
 10
127.5520491050393
 20
19.46564698797285
 11
126.3903948846864
 21
19.76658596268387
  0
LINE
  5
226
100
AcDbEntity
  8
Esqueleto
  6
ByLayer
 62
  256
370
   -1
100
AcDbLine
 10
127.5514115369498
 20
19.46547769561173
 11
127.5510821604226
 21
19.4658974853381
  0
LINE
  5
227
100
AcDbEntity
  8
Esqueleto
  6
ByLayer
 62
  256
370
   -1
100
AcDbLine
 10
127.5620911839635
 20
19.46254716686416
 11
127.5514115369498
 21
19.46547769561173
  0
LINE
  5
228
100
AcDbEntity
  8
Esqueleto
  6
ByLayer
 62
  256
370
   -1
100
AcDbLine
 10
127.5620904129768
 20
19.46272262190451
 11
127.563622211961
 21
19.11412795931924
  0
LINE
  5
229
100
AcDbEntity
  8
Esqueleto
  6
ByLayer
 62
  256
370
   -1
100
AcDbLine
 10
127.5620901926949
 20
19.46277275190587
 11
127.5620904129768
 21
19.46272262190451
  0
LINE
  5
22A
100
AcDbEntity
  8
Esqueleto
  6
ByLayer
 62
  256
370
   -1
100
AcDbLine
 10
127.5620885405809
 20
19.46314872691609
 11
127.5620901926949
 21
19.46277275190587
  0
LINE
  5
22B
100
AcDbEntity
  8
Esqueleto
  6
ByLayer
 62
  256
370
   -1
100
AcDbLine
 10
127.5394542771648
 20
24.61407486005634
 11
127.5417587395886
 21
24.08964358066044
  0
LINE
  5
22C
100
AcDbEntity
  8
Esqueleto
  6
ByLayer
 62
  256
370
   -1
100
AcDbLine
 10
127.5417587395886
 20
24.08964358066044
 11
127.5425907730042
 21
23.90788182447298
  0
MTEXT
  5
22D
100
AcDbEntity
  8
medidas estrutura
  6
ByLayer
 62
  256
370
   -1
100
AcDbMText
 10
115.2436490441338
 20
125.0229076743545
 30
0
 40
2
 41
3.777777777778026
 71
    1
 72
    1
  1
35%%D
  7
standard
210
0
220
0
230
1
 50
0
 73
    2
 44
1
  0
MTEXT
  5
22E
100
AcDbEntity
  8
medidas estrutura
  6
ByLayer
 62
  256
370
   -1
100
AcDbMText
 10
130.2333333333333
 20
128.9999999999989
 30
0
 40
2
 41
3.777777777778026
 71
    1
 72
    1
  1
55%%D
  7
standard
210
0
220
0
230
1
 50
0
 73
    2
 44
1
  0
MTEXT
  5
22F
100
AcDbEntity
  8
0
  6
ByLayer
 62
  256
370
   -1
100
AcDbMText
 10
22.23333333333331
 20
9.999999999998948
 30
0
 40
2
 41
5.111111111111422
 71
    1
 72
    1
  1
Cima\P
  7
standard
210
0
220
0
230
1
 50
0
 73
    2
 44
1
  0
MTEXT
  5
230
100
AcDbEntity
  8
0
  6
ByLayer
 62
  256
370
   -1
100
AcDbMText
 10
52.23333333333331
 20
9.999999999998948
 30
0
 40
2
 41
6.444444444444538
 71
    1
 72
    1
  1
Baixo
  7
standard
210
0
220
0
230
1
 50
0
 73
    2
 44
1
  0
LWPOLYLINE
  5
231
100
AcDbEntity
  8
medidas estrutura
  6
ByLayer
 62
  256
370
   -1
100
AcDbPolyline
 90
    4
 70
    0
 43
0
 10
22.26666666666662
 20
27.99999999999895
 42
-0.3639702342662013
 10
23.76666666666662
 20
35.59999999999894
 42
-0.3639702342661996
 10
25.46666666666663
 20
35.69999999999895
 42
-0.3639702342662024
 10
26.86666666666662
 20
27.99999999999894
 42
-0.3639702342662024
  0
ARC
  5
232
100
AcDbEntity
  8
medidas estrutura
  6
ByLayer
 62
  256
370
   -1
100
AcDbCircle
 10
24.56666666666662
 20
27.99999999999894
 40
2.299999999999997
100
AcDbArc
 50
179.9999999999998
 51
0
  0
LWPOLYLINE
  5
233
100
AcDbEntity
  8
medidas estrutura
  6
ByLayer
 62
  256
370
   -1
100
AcDbPolyline
 90
    4
 70
    0
 43
0
 10
52.26666666666662
 20
27.99999999999895
 42
-0.3639702342662016
 10
53.76666666666662
 20
35.59999999999894
 42
-0.3639702342661996
 10
55.46666666666663
 20
35.69999999999895
 42
-0.3639702342662027
 10
56.86666666666662
 20
27.99999999999894
 42
-0.3639702342662027
  0
ARC
  5
234
100
AcDbEntity
  8
medidas estrutura
  6
ByLayer
 62
  256
370
   -1
100
AcDbCircle
 10
54.56666666666662
 20
27.99999999999894
 40
2.299999999999997
100
AcDbArc
 50
179.9999999999998
 51
0
  0
CIRCLE
  5
235
100
AcDbEntity
  8
medidas estrutura
  6
ByLayer
 62
  256
370
   -1
100
AcDbCircle
 10
54.56666666666662
 20
27.99999999999895
 40
2.3
  0
LWPOLYLINE
  5
236
100
AcDbEntity
  8
detalhes
  6
ByLayer
 62
  256
370
   -1
100
AcDbPolyline
 90
    4
 70
    0
 43
0
 10
22.44435666366151
 20
30.54136970957005
 42
-0.26794919243112
 10
22.54369098799381
 20
28.28745473956583
 42
-0.2679491924311343
 10
21.7469065181628
 20
30.05808584418254
 42
-0.2679491924311117
 10
22.44435666366151
 20
30.54136970957004
 42
-0.2679491924311117
  0
LWPOLYLINE
  5
237
100
AcDbEntity
  8
detalhes
  6
ByLayer
 62
  256
370
   -1
100
AcDbPolyline
 90
    3
 70
    0
 43
0
 10
22.04666666666661
 20
29.91999999999895
 42
0.8390996311772692
 10
22.34666666666662
 20
29.11999999999894
 42
0.8390996311772688
 10
22.34666666666662
 20
29.91999999999895
 42
0.8390996311772688
  0
LINE
  5
238
100
AcDbEntity
  8
detalhes
  6
ByLayer
 62
  256
370
   -1
100
AcDbLine
 10
22.16666666666661
 20
30.09999999999894
 11
22.24666666666663
 21
29.51999999999894
  0
LWPOLYLINE
  5
239
100
AcDbEntity
  8
detalhes
  6
ByLayer
 62
  256
370
   -1
100
AcDbPolyline
 90
    4
 70
    0
 43
0
 10
26.74369098799385
 20
30.48745473956586
 42
0.2679491924311191
 10
26.24369098799384
 20
28.28745473956585
 42
0.2679491924311269
 10
27.34369098799385
 20
29.88745473956584
 42
0.2679491924311188
 10
26.74369098799384
 20
30.48745473956585
 42
0.2679491924311188
  0
LINE
  5
23A
100
AcDbEntity
  8
detalhes
  6
ByLayer
 62
  256
370
   -1
100
AcDbLine
 10
26.74369098799384
 20
30.18745473956585
 11
26.74369098799384
 21
28.78745473956585
  0
LINE
  5
23B
100
AcDbEntity
  8
detalhes
  6
ByLayer
 62
  256
370
   -1
100
AcDbLine
 10
26.54369098799386
 20
28.78745473956585
 11
26.94369098799386
 21
30.18745473956585
  0
LINE
  5
23C
100
AcDbEntity
  8
detalhes
  6
ByLayer
 62
  256
370
   -1
100
AcDbLine
 10
26.94369098799386
 20
30.18745473956585
 11
27.14369098799385
 21
29.78745473956585
  0
LINE
  5
23D
100
AcDbEntity
  8
detalhes
  6
ByLayer
 62
  256
370
   -1
100
AcDbLine
 10
27.14369098799385
 20
29.78745473956585
 11
26.34369098799387
 21
29.18745473956585
  0
LINE
  5
23E
100
AcDbEntity
  8
detalhes
  6
ByLayer
 62
  256
370
   -1
100
AcDbLine
 10
26.74369098799384
 20
28.78745473956585
 11
26.54369098799386
 21
28.78745473956585
  0
LINE
  5
23F
100
AcDbEntity
  8
medidas estrutura
  6
ByLayer
 62
  256
370
   -1
100
AcDbLine
 10
51.86600099099893
 20
29.04608502999477
 11
51.79726666666661
 21
29.09799999999895
  0
LINE
  5
240
100
AcDbEntity
  8
medidas estrutura
  6
ByLayer
 62
  256
370
   -1
100
AcDbLine
 10
51.56666666666662
 20
30.27999999999895
 11
51.52666666666663
 21
30.58999999999895
  0
ARC
  5
241
100
AcDbEntity
  8
medidas estrutura
  6
ByLayer
 62
    1
370
   -1
100
AcDbCircle
 10
51.6004851855222
 20
30.27818148114336
 40
0.4062638702350792
100
AcDbArc
 50
271.1539200619533
 51
80.29422871660277
  0
LWPOLYLINE
  5
242
100
AcDbEntity
  8
medidas estrutura
  6
ByLayer
 62
    1
370
   -1
100
AcDbPolyline
 90
    3
 70
    0
 43
0
 10
51.52866666666662
 20
31.24499999999895
 42
-0.06554346281523815
 10
51.76666666666663
 20
31.29999999999895
 42
-0.2679491924311233
 10
51.86600099099894
 20
29.04608502999476
 42
-0.2679491924311233
  0
LWPOLYLINE
  5
243
100
AcDbEntity
  8
medidas estrutura
  6
ByLayer
 62
    1
370
   -1
100
AcDbPolyline
 90
    2
 70
    0
 43
0
 10
57.06666666666662
 20
29.09999999999895
 42
0.06554346281523837
 10
57.42566666666662
 20
29.32199999999894
 42
0.06554346281523837
  0
LWPOLYLINE
  5
244
100
AcDbEntity
  8
medidas estrutura
  6
ByLayer
 62
    1
370
   -1
100
AcDbPolyline
 90
    3
 70
    0
 43
0
 10
57.06666666666662
 20
29.09999999999895
 42
-0.2679491924311239
 10
57.56666666666662
 20
31.29999999999895
 42
-0.04366094290851168
 10
57.66066666666662
 20
31.26899999999895
 42
-0.04366094290851168
  0
LINE
  5
245
100
AcDbEntity
  8
medidas estrutura
  6
ByLayer
 62
    1
370
   -1
100
AcDbLine
 10
57.56666666666662
 20
30.99999999999896
 11
57.56666666666662
 21
29.89999999999895
  0
LINE
  5
246
100
AcDbEntity
  8
medidas estrutura
  6
ByLayer
 62
    1
370
   -1
100
AcDbLine
 10
57.16666666666662
 20
29.99999999999895
 11
57.62666666666662
 21
30.33999999999895
  0
LINE
  5
247
100
AcDbEntity
  8
medidas estrutura
  6
ByLayer
 62
    1
370
   -1
100
AcDbLine
 10
57.65666666666662
 20
30.59999999999895
 11
57.36666666666663
 21
29.59999999999895
  0
LINE
  5
248
100
AcDbEntity
  8
medidas estrutura
  6
ByLayer
 62
    1
370
   -1
100
AcDbLine
 10
57.36666666666663
 20
29.59999999999895
 11
57.49666666666663
 21
29.59999999999895
  0
DIMENSION
  5
249
100
AcDbEntity
  8
medidas estrutura
  6
ByLayer
 62
  256
370
   -1
100
AcDbDimension
  2
*D6
 10
79.56666666666662
 20
24.6
 30
0
 11
76.75416666666662
 21
21.85000000000001
 31
0
 70
   33
  1
5.5cm
 71
    5
  3
Standard
 53
0
210
0
220
0
230
1
100
AcDbAlignedDimension
 13
95.79999999999998
 23
19.1
 33
0
 14
95.79999999999998
 24
24.6
 34
0
  0
DIMENSION
  5
24A
100
AcDbEntity
  8
medidas estrutura
  6
ByLayer
 62
  256
370
   -1
100
AcDbDimension
  2
*D7
 10
79.5658994418318
 20
24.63403375379068
 30
0
 11
76.85340562234227
 21
72.33992996724876
 31
0
 70
   33
  1
95.4cm
 71
    5
  3
Standard
 53
0
210
0
220
0
230
1
100
AcDbAlignedDimension
 13
96
 23
120
 33
0
 14
95.79999999999998
 24
24.6
 34
0
  0
DIMENSION
  5
24B
100
AcDbEntity
  8
medidas estrutura
  6
ByLayer
 62
  256
370
   -1
100
AcDbDimension
  2
*D8
 10
85.59177735895558
 20
131.1809302661113
 30
0
 11
82.74599475065202
 21
125.6478218533489
 31
0
 70
   33
  1
11.1cm
 71
    5
  3
Standard
 53
0
210
0
220
0
230
1
100
AcDbAlignedDimension
 13
98.99999999999997
 23
120
 33
0
 14
99.06666666666663
 24
131.0999999999989
 34
0
  0
DIMENSION
  5
24C
100
AcDbEntity
  8
medidas estrutura
  6
ByLayer
 62
  256
370
   -1
100
AcDbDimension
  2
*D9
 10
99.19999999999999
 20
19.1
 30
0
 11
97.5
 21
21.9125
 31
0
 70
   33
  1
3.4cm
 71
    5
  3
Standard
 53
0
210
0
220
0
230
1
100
AcDbAlignedDimension
 13
95.80000000000001
 23
19.1
 33
0
 14
99.19999999999999
 24
19.1
 34
0
  0
DIMENSION
  5
24D
100
AcDbEntity
  8
medidas estrutura
  6
ByLayer
 62
  256
370
   -1
100
AcDbDimension
  2
*D10
 10
98.99926780964718
 20
68.56008090392228
 30
0
 11
97.53985287227185
 21
71.39393568320233
 31
0
 70
   33
  1
3cm
 71
    5
  3
Standard
 53
0
210
0
220
0
230
1
100
AcDbAlignedDimension
 13
96
 23
68.65411084472875
 33
0
 14
98.99999999999997
 24
68.61081560330136
 34
0
  0
DIMENSION
  5
24E
100
AcDbEntity
  8
medidas estrutura
  6
ByLayer
 62
  256
370
   -1
100
AcDbDimension
  2
*D11
 10
134.5677251749
 20
131.1109302050067
 30
0
 11
131.2205140596565
 21
75.08736005877911
 31
0
 70
   33
  1
112.1cm
 71
    5
  3
Standard
 53
0
210
0
220
0
230
1
100
AcDbAlignedDimension
 13
124.1636550369599
 23
19.09918778144525
 33
0
 14
125.2333333333333
 24
131.1999999999989
 34
0
  0
DIMENSION
  5
24F
100
AcDbEntity
  8
medidas estrutura
  6
ByLayer
 62
  256
370
   -1
100
AcDbDimension
  2
*D12
 10
95.99999999999916
 20
124
 30
0
 11
99.28333333333296
 21
126.8124999999995
 31
0
 70
   33
  1
6.6cm
 71
    5
  3
Standard
 53
0
210
0
220
0
230
1
100
AcDbAlignedDimension
 13
102.5666666666666
 23
128.9999999999989
 33
0
 14
96
 24
129
 34
0
  0
LINE
  5
250
100
AcDbEntity
  8
0
  6
ByLayer
 62
  256
370
   -1
100
AcDbLine
 10
-31.99999999999999
 20
127
 11
-31.99999999999999
 21
123
  0
LINE
  5
251
100
AcDbEntity
  8
0
  6
ByLayer
 62
  256
370
   -1
100
AcDbLine
 10
-27.99999999999999
 20
123
 11
-27.99999999999999
 21
127
  0
LINE
  5
252
100
AcDbEntity
  8
0
  6
ByLayer
 62
  256
370
   -1
100
AcDbLine
 10
-27.99999999999999
 20
127
 11
-31.99999999999999
 21
127
  0
LINE
  5
253
100
AcDbEntity
  8
0
  6
ByLayer
 62
  256
370
   -1
100
AcDbLine
 10
-31.99999999999999
 20
123
 11
-27.99999999999999
 21
123
  0
LINE
  5
254
100
AcDbEntity
  8
0
  6
ByLayer
 62
    5
370
   -1
100
AcDbLine
 10
-31.99999999999999
 20
107
 11
-31.99999999999999
 21
103
  0
LINE
  5
255
100
AcDbEntity
  8
0
  6
ByLayer
 62
    5
370
   -1
100
AcDbLine
 10
-27.99999999999999
 20
103
 11
-27.99999999999999
 21
107
  0
LINE
  5
256
100
AcDbEntity
  8
0
  6
ByLayer
 62
    5
370
   -1
100
AcDbLine
 10
-27.99999999999999
 20
107
 11
-31.99999999999999
 21
107
  0
LINE
  5
257
100
AcDbEntity
  8
0
  6
ByLayer
 62
    5
370
   -1
100
AcDbLine
 10
-31.99999999999999
 20
103
 11
-27.99999999999999
 21
103
  0
LINE
  5
258
100
AcDbEntity
  8
0
  6
ByLayer
 62
    1
370
   -1
100
AcDbLine
 10
-31.99999999999999
 20
117
 11
-31.99999999999999
 21
113
  0
LINE
  5
259
100
AcDbEntity
  8
0
  6
ByLayer
 62
    1
370
   -1
100
AcDbLine
 10
-27.99999999999999
 20
113
 11
-27.99999999999999
 21
117
  0
LINE
  5
25A
100
AcDbEntity
  8
0
  6
ByLayer
 62
    1
370
   -1
100
AcDbLine
 10
-27.99999999999999
 20
117
 11
-31.99999999999999
 21
117
  0
LINE
  5
25B
100
AcDbEntity
  8
0
  6
ByLayer
 62
    1
370
   -1
100
AcDbLine
 10
-31.99999999999999
 20
113
 11
-27.99999999999999
 21
113
  0
MTEXT
  5
25C
100
AcDbEntity
  8
0
  6
ByLayer
 62
  256
370
   -1
100
AcDbMText
 10
-24.99999999999999
 20
106
 30
0
 40
2
 41
33.05555761270484
 71
    1
 72
    1
  1
Componentes eletrônicos
  7
standard
210
0
220
0
230
1
 50
0
 73
    2
 44
1
  0
MTEXT
  5
25D
100
AcDbEntity
  8
0
  6
ByLayer
 62
  256
370
   -1
100
AcDbMText
 10
-24.99999999999999
 20
116
 30
0
 40
2
 41
8.666667695241063
 71
    1
 72
    1
  1
Botões
  7
standard
210
0
220
0
230
1
 50
0
 73
    2
 44
1
  0
LINE
  5
25E
100
AcDbEntity
  8
0
  6
ByLayer
 62
  256
370
   -1
100
AcDbLine
 10
-35
 20
130
 11
-35
 21
100
  0
LINE
  5
25F
100
AcDbEntity
  8
0
  6
ByLayer
 62
  256
370
   -1
100
AcDbLine
 10
-35
 20
100
 11
10
 21
100
  0
LINE
  5
260
100
AcDbEntity
  8
0
  6
ByLayer
 62
  256
370
   -1
100
AcDbLine
 10
10
 20
100
 11
10
 21
130
  0
LINE
  5
261
100
AcDbEntity
  8
0
  6
ByLayer
 62
  256
370
   -1
100
AcDbLine
 10
-35
 20
130
 11
10
 21
130
  0
MTEXT
  5
262
100
AcDbEntity
  8
0
  6
ByLayer
 62
  256
370
   -1
100
AcDbMText
 10
-24.99999999999999
 20
126
 30
0
 40
2
 41
12.44444547301893
 71
    1
 72
    1
  1
Estrutura
  7
standard
210
0
220
0
230
1
 50
0
 73
    2
 44
1
  0
MTEXT
  5
263
100
AcDbEntity
  8
0
  6
ByLayer
 62
  256
370
   -1
100
AcDbMText
 10
271
 20
10
 30
0
 40
2
 41
13.05555555555587
 71
    1
 72
    1
  1
2D aberto
  7
standard
210
0
220
0
230
1
 50
0
 73
    2
 44
1
  0
DIMENSION
  5
264
100
AcDbEntity
  8
3
  6
ByLayer
 62
  256
370
   -1
100
AcDbDimension
  2
*D13
 10
27.7
 20
31
 30
0
 11
24.6
 21
33.8125
 31
0
 70
   33
  1
6.2cm
 71
    5
  3
Standard
 53
0
210
0
220
0
230
1
100
AcDbAlignedDimension
 13
21.5
 23
31
 33
0
 14
27.7
 24
31
 34
0
  0
DIMENSION
  5
265
100
AcDbEntity
  8
3
  6
ByLayer
 62
  256
370
   -1
100
AcDbDimension
  2
*D14
 10
57.7
 20
31
 30
0
 11
54.59999999999999
 21
33.8125
 31
0
 70
   33
  1
6.2cm
 71
    5
  3
Standard
 53
0
210
0
220
0
230
1
100
AcDbAlignedDimension
 13
51.5
 23
31
 33
0
 14
57.7
 24
31
 34
0
  0
DIMENSION
  5
266
100
AcDbEntity
  8
3
  6
ByLayer
 62
  256
370
   -1
100
AcDbDimension
  2
*D15
 10
49.00000000000001
 20
25.7
 30
0
 11
46.3
 21
41
 31
0
 70
   33
  1
10.3cm
 71
    5
  3
Standard
 53
0
210
0
220
0
230
1
100
AcDbAlignedDimension
 13
49.00000000000001
 23
36
 33
0
 14
49.00000000000001
 24
25.7
 34
0
  0
DIMENSION
  5
267
100
AcDbEntity
  8
3
  6
ByLayer
 62
  256
370
   -1
100
AcDbDimension
  2
*D16
 10
20
 20
25.7
 30
0
 11
17.19534260427436
 21
30.83517782310255
 31
0
 70
   33
  1
10.25cm
 71
    5
  3
Standard
 53
0
210
0
220
0
230
1
100
AcDbAlignedDimension
 13
16.9988791093363
 23
35.96637066353445
 33
0
 14
16.98320046624358
 24
25.70460927918712
 34
0
  0
LINE
  5
268
100
AcDbEntity
  8
2D
  6
ByLayer
 62
  256
370
   -1
100
AcDbLine
 10
298.84
 20
19
 11
280
 21
19
  0
LINE
  5
269
100
AcDbEntity
  8
2D
  6
ByLayer
 62
  256
370
   -1
100
AcDbLine
 10
280
 20
19
 11
280
 21
114.4
  0
LINE
  5
26A
100
AcDbEntity
  8
2D
  6
ByLayer
 62
  256
370
   -1
100
AcDbLine
 10
280
 20
114.4000000000001
 11
298.84
 21
114.4000000000001
  0
LINE
  5
26B
100
AcDbEntity
  8
2D
  6
ByLayer
 62
  256
370
   -1
100
AcDbLine
 10
298.84
 20
114.4000000000001
 11
298.84
 21
19.00000000000006
  0
DIMENSION
  5
26C
100
AcDbEntity
  8
2D
  6
ByLayer
 62
  256
370
   -1
100
AcDbDimension
  2
*D17
 10
288.84
 20
19.00000000000007
 30
0
 11
286.0275
 21
66.70000000000007
 31
0
 70
   32
  1
95.4cm
 71
    5
 72
    0
  3
Standard
 53
0
210
0
220
0
230
1
100
AcDbAlignedDimension
 13
288.84
 23
114.4000000000001
 33
0
 14
288.84
 24
19.00000000000007
 34
0
 50
90
100
AcDbRotatedDimension
  0
CIRCLE
  5
26D
100
AcDbEntity
  8
2D
  6
ByLayer
 62
  256
370
   -1
100
AcDbCircle
 10
278.44
 20
112.9000000000001
 40
1.5
  0
CIRCLE
  5
26E
100
AcDbEntity
  8
2D
  6
ByLayer
 62
  256
370
   -1
100
AcDbCircle
 10
300.44
 20
112.9000000000001
 40
1.5
  0
DIMENSION
  5
26F
100
AcDbEntity
  8
medidas estrutura
  6
ByLayer
 62
  256
370
   -1
100
AcDbDimension
  2
*D18
 10
261.16
 20
43.46587984711663
 30
0
 11
258.3475
 21
32.76587984711663
 31
0
 70
   32
  1
21.36cm
 71
    5
 72
    0
  3
Standard
 53
0
210
0
220
0
230
1
100
AcDbAlignedDimension
 13
260.16
 23
22.06587984711663
 33
0
 14
260.16
 24
43.46587984711663
 34
0
 50
90
100
AcDbRotatedDimension
  0
LINE
  5
270
100
AcDbEntity
  8
2D
  6
ByLayer
 62
  256
370
   -1
100
AcDbLine
 10
256.5
 20
43.42587984711668
 11
256.5156468556381
 21
37.92590210389729
  0
LINE
  5
271
100
AcDbEntity
  8
3
  6
ByLayer
 62
  256
370
   -1
100
AcDbLine
 10
261.9999787421812
 20
43.4411715296569
 11
262.0593660765556
 21
22.08125408729508
  0
LINE
  5
272
100
AcDbEntity
  8
3
  6
ByLayer
 62
  256
370
   -1
100
AcDbLine
 10
262.0593660765556
 20
22.08125408729508
 11
256.5593873343744
 21
22.06596240475479
  0
LINE
  5
273
100
AcDbEntity
  8
3
  6
ByLayer
 62
  256
370
   -1
100
AcDbLine
 10
256.5593873343744
 20
22.06596240475479
 11
256.5
 21
43.42587984711668
  0
CIRCLE
  5
274
100
AcDbEntity
  8
3
  6
ByLayer
 62
  256
370
   -1
100
AcDbCircle
 10
254.7649000636138
 20
41.66104891732409
 40
1.75
  0
CIRCLE
  5
275
100
AcDbEntity
  8
3
  6
ByLayer
 62
  256
370
   -1
100
AcDbCircle
 10
263.7648652780921
 20
41.68607167057174
 40
1.75
  0
LINE
  5
276
100
AcDbEntity
  8
3
  6
ByLayer
 62
  256
370
   -1
100
AcDbLine
 10
256.5
 20
43.42587984711668
 11
261.9999787421812
 21
43.4411715296569
  0
DIMENSION
  5
277
100
AcDbEntity
  8
2D
  6
ByLayer
 62
  256
370
   -1
100
AcDbDimension
  2
*D19
 10
298.84
 20
88.95991363377713
 30
0
 11
289.42
 21
91.77241363377713
 31
0
 70
   32
  1
18.84cm
 71
    5
 72
    0
  3
Standard
 53
0
210
0
220
0
230
1
100
AcDbAlignedDimension
 13
280
 23
89.02019349318566
 33
0
 14
298.84
 24
88.85964743621422
 34
0
100
AcDbRotatedDimension
  0
DIMENSION
  5
278
100
AcDbEntity
  8
medidas estrutura
  6
ByLayer
 62
  256
370
   -1
100
AcDbDimension
  2
*D20
 10
262
 20
22
 30
0
 11
259.25
 21
24.8125
 31
0
 70
   32
  1
5.5cm
 71
    5
 72
    0
  3
Standard
 53
0
210
0
220
0
230
1
100
AcDbAlignedDimension
 13
256.5
 23
31.59436640165819
 33
0
 14
262
 24
31.56168908435392
 34
0
100
AcDbRotatedDimension
  0
LWPOLYLINE
  5
279
100
AcDbEntity
  8
3
  6
ByLayer
 62
  256
370
   -1
100
AcDbPolyline
 90
    2
 70
    0
 43
0
 10
271.0999999999999
 20
92.00000000000001
 42
0.2446984432290331
 10
271.0999999999999
 20
101.3
 42
0.2446984432290331
  0
LWPOLYLINE
  5
27A
100
AcDbEntity
  8
3
  6
ByLayer
 62
  256
370
   -1
100
AcDbPolyline
 90
    2
 70
    0
 43
0
 10
268.4000000000001
 20
101.3
 42
0.2446984432290331
 10
268.4000000000001
 20
92.00000000000003
 42
0.2446984432290331
  0
LINE
  5
27B
100
AcDbEntity
  8
3
  6
ByLayer
 62
  256
370
   -1
100
AcDbLine
 10
268.4
 20
92
 11
271.1
 21
92
  0
LINE
  5
27C
100
AcDbEntity
  8
3
  6
ByLayer
 62
  256
370
   -1
100
AcDbLine
 10
268.4
 20
101.3
 11
271.1
 21
101.3
  0
LWPOLYLINE
  5
27D
100
AcDbEntity
  8
3
  6
ByLayer
 62
  256
370
   -1
100
AcDbPolyline
 90
    2
 70
    0
 43
0
 10
271
 20
105.7000000000001
 42
0.2446984432290331
 10
271
 20
115
 42
0.2446984432290331
  0
LWPOLYLINE
  5
27E
100
AcDbEntity
  8
3
  6
ByLayer
 62
  256
370
   -1
100
AcDbPolyline
 90
    2
 70
    0
 43
0
 10
268.3000000000002
 20
115
 42
0.2446984432290331
 10
268.3000000000002
 20
105.7000000000001
 42
0.2446984432290331
  0
LINE
  5
27F
100
AcDbEntity
  8
3
  6
ByLayer
 62
  256
370
   -1
100
AcDbLine
 10
268.3000000000001
 20
105.7
 11
271.0000000000001
 21
105.7
  0
LINE
  5
280
100
AcDbEntity
  8
3
  6
ByLayer
 62
  256
370
   -1
100
AcDbLine
 10
268.3000000000001
 20
115
 11
271.0000000000001
 21
115
  0
LINE
  5
281
100
AcDbEntity
  8
3
  6
ByLayer
 62
  256
370
   -1
100
AcDbLine
 10
267.1
 20
84.19999999999997
 11
271.6
 21
84.19999999999997
  0
LINE
  5
282
100
AcDbEntity
  8
3
  6
ByLayer
 62
  256
370
   -1
100
AcDbLine
 10
271.6
 20
84.19999999999997
 11
271.6
 21
86.89999999999999
  0
LINE
  5
283
100
AcDbEntity
  8
3
  6
ByLayer
 62
  256
370
   -1
100
AcDbLine
 10
271.6
 20
86.89999999999999
 11
270.6999999999999
 21
86
  0
LINE
  5
284
100
AcDbEntity
  8
3
  6
ByLayer
 62
  256
370
   -1
100
AcDbLine
 10
270.6999999999999
 20
86
 11
268
 21
86
  0
LINE
  5
285
100
AcDbEntity
  8
3
  6
ByLayer
 62
  256
370
   -1
100
AcDbLine
 10
268
 20
86
 11
267.1
 21
86.89999999999999
  0
LINE
  5
286
100
AcDbEntity
  8
3
  6
ByLayer
 62
  256
370
   -1
100
AcDbLine
 10
267.1
 20
86.89999999999999
 11
267.1
 21
84.19999999999997
  0
LINE
  5
287
100
AcDbEntity
  8
3
  6
ByLayer
 62
  256
370
   -1
100
AcDbLine
 10
267.1
 20
84.19999999999997
 11
268
 21
84.79999999999998
  0
LINE
  5
288
100
AcDbEntity
  8
3
  6
ByLayer
 62
  256
370
   -1
100
AcDbLine
 10
267.1
 20
86.59999999999997
 11
268
 21
85.69999999999997
  0
LINE
  5
289
100
AcDbEntity
  8
3
  6
ByLayer
 62
  256
370
   -1
100
AcDbLine
 10
268
 20
85.69999999999997
 11
270.6999999999999
 21
85.69999999999997
  0
LINE
  5
28A
100
AcDbEntity
  8
3
  6
ByLayer
 62
  256
370
   -1
100
AcDbLine
 10
270.6999999999999
 20
85.69999999999997
 11
271.6
 21
86.59999999999997
  0
LINE
  5
28B
100
AcDbEntity
  8
3
  6
ByLayer
 62
  256
370
   -1
100
AcDbLine
 10
268
 20
85.69999999999997
 11
268
 21
84.79999999999998
  0
LINE
  5
28C
100
AcDbEntity
  8
3
  6
ByLayer
 62
  256
370
   -1
100
AcDbLine
 10
268
 20
84.79999999999998
 11
270.6999999999999
 21
84.80000000000003
  0
LINE
  5
28D
100
AcDbEntity
  8
3
  6
ByLayer
 62
  256
370
   -1
100
AcDbLine
 10
270.6999999999999
 20
84.80000000000003
 11
271.6
 21
84.19999999999997
  0
LINE
  5
28E
100
AcDbEntity
  8
3
  6
ByLayer
 62
  256
370
   -1
100
AcDbLine
 10
270.6999999999999
 20
85.69999999999997
 11
270.6999999999999
 21
84.80000000000003
  0
LINE
  5
28F
100
AcDbEntity
  8
3
  6
ByLayer
 62
  256
370
   -1
100
AcDbLine
 10
268.3000000000001
 20
77.89999999999999
 11
268
 21
77
  0
LINE
  5
290
100
AcDbEntity
  8
3
  6
ByLayer
 62
  256
370
   -1
100
AcDbLine
 10
268
 20
77
 11
268
 21
74
  0
LINE
  5
291
100
AcDbEntity
  8
3
  6
ByLayer
 62
  256
370
   -1
100
AcDbLine
 10
268
 20
74
 11
268.3000000000001
 21
71.89999999999999
  0
LINE
  5
292
100
AcDbEntity
  8
3
  6
ByLayer
 62
  256
370
   -1
100
AcDbLine
 10
268.3000000000001
 20
71.89999999999999
 11
269.2000000000001
 21
70.10000000000001
  0
LINE
  5
293
100
AcDbEntity
  8
3
  6
ByLayer
 62
  256
370
   -1
100
AcDbLine
 10
269.2000000000001
 20
70.10000000000001
 11
269.5
 21
69.5
  0
LWPOLYLINE
  5
294
100
AcDbEntity
  8
3
  6
ByLayer
 62
  256
370
   -1
100
AcDbPolyline
 90
    2
 70
    0
 43
0
 10
269.5
 20
69.49999999999999
 42
0.118357799640768
 10
271.0000000000001
 20
78.79999999999998
 42
0.118357799640768
  0
LINE
  5
295
100
AcDbEntity
  8
3
  6
ByLayer
 62
  256
370
   -1
100
AcDbLine
 10
271
 20
78.79999999999998
 11
268.9
 21
78.5
  0
LINE
  5
296
100
AcDbEntity
  8
3
  6
ByLayer
 62
  256
370
   -1
100
AcDbLine
 10
268.9
 20
78.5
 11
268.3000000000001
 21
77.89999999999999
  0
LINE
  5
297
100
AcDbEntity
  8
3
  6
ByLayer
 62
  256
370
   -1
100
AcDbLine
 10
270.6999999999999
 20
64.10000000000001
 11
271
 21
63.20000000000002
  0
LINE
  5
298
100
AcDbEntity
  8
3
  6
ByLayer
 62
  256
370
   -1
100
AcDbLine
 10
271
 20
63.20000000000002
 11
271
 21
60.20000000000002
  0
LINE
  5
299
100
AcDbEntity
  8
3
  6
ByLayer
 62
  256
370
   -1
100
AcDbLine
 10
271
 20
60.20000000000002
 11
270.6999999999999
 21
58.10000000000001
  0
LINE
  5
29A
100
AcDbEntity
  8
3
  6
ByLayer
 62
  256
370
   -1
100
AcDbLine
 10
270.6999999999999
 20
58.10000000000001
 11
269.7999999999999
 21
56.30000000000003
  0
LINE
  5
29B
100
AcDbEntity
  8
3
  6
ByLayer
 62
  256
370
   -1
100
AcDbLine
 10
269.7999999999999
 20
56.30000000000003
 11
269.5
 21
55.70000000000002
  0
LWPOLYLINE
  5
29C
100
AcDbEntity
  8
3
  6
ByLayer
 62
  256
370
   -1
100
AcDbPolyline
 90
    2
 70
    0
 43
0
 10
269.5
 20
55.70000000000001
 42
-0.1183577996407679
 10
267.9999999999999
 20
65
 42
-0.1183577996407679
  0
LINE
  5
29D
100
AcDbEntity
  8
3
  6
ByLayer
 62
  256
370
   -1
100
AcDbLine
 10
268
 20
65
 11
270.1
 21
64.70000000000002
  0
LINE
  5
29E
100
AcDbEntity
  8
3
  6
ByLayer
 62
  256
370
   -1
100
AcDbLine
 10
270.1
 20
64.70000000000002
 11
270.6999999999999
 21
64.10000000000001
  0
MTEXT
  5
29F
100
AcDbEntity
  8
3
  6
ByLayer
 62
  256
370
   -1
100
AcDbMText
 10
268.3
 20
105
 30
0
 40
1
 41
2.555555555555711
 71
    1
 72
    1
  1
Cima
  7

210
0
220
0
230
1
 50
0
 73
    2
 44
1
  0
MTEXT
  5
2A0
100
AcDbEntity
  8
3
  6
ByLayer
 62
  256
370
   -1
100
AcDbMText
 10
268.4
 20
91.10000000000001
 30
0
 40
1
 41
3.222222222222269
 71
    1
 72
    1
  1
Baixo
  7

210
0
220
0
230
1
 50
0
 73
    2
 44
1
  0
MTEXT
  5
2A1
100
AcDbEntity
  8
3
  6
ByLayer
 62
  256
370
   -1
100
AcDbMText
 10
266.4444439301573
 20
69
 30
0
 40
1
 41
5.777778292065022
 71
    1
 72
    1
  1
Esquerda
  7

210
0
220
0
230
1
 50
0
 73
    2
 44
1
  0
MTEXT
  5
2A2
100
AcDbEntity
  8
Esqueleto
  6
ByLayer
 62
  256
370
   -1
100
AcDbMText
 10
267.6777777777777
 20
55
 30
0
 40
1
 41
4.111111111111219
 71
    1
 72
    1
  1
Direita
  7

210
0
220
0
230
1
 50
0
 73
    2
 44
1
  0
MTEXT
  5
2A3
100
AcDbEntity
  8
3
  6
ByLayer
 62
  256
370
   -1
100
AcDbMText
 10
267.4999999999999
 20
83.7
 30
0
 40
1
 41
4.111111111111158
 71
    1
 72
    1
  1
Frente
  7

210
0
220
0
230
1
 50
0
 73
    2
 44
1
  0
MTEXT
  5
2A4
100
AcDbEntity
  8
3
  6
ByLayer
 62
  256
370
   -1
100
AcDbMText
 10
262.4999999999998
 20
119.5
 30
0
 40
1.5
 41
17.25000154286199
 71
    1
 72
    1
  1
Dimensões em 2D
  7

210
0
220
0
230
1
 50
0
 73
    2
 44
1
  0
ENDSEC
  0
SECTION
  2
OBJECTS
  0
DICTIONARY
  5
C
330
0
100
AcDbDictionary
281
    1
  3
ACAD_GROUP
350
D
  0
DICTIONARY
  5
D
330
C
100
AcDbDictionary
281
    1
  0
ENDSEC
  0
EOF
